<svg width="360" height="400" viewBox="0 0 360 400" fill="none" xmlns="http://www.w3.org/2000/svg">
<path opacity="0.5" d="M269.1 14.7C269.1 17.9 266.5 20.5 263.3 20.5C260.1 20.5 257.5 17.9 257.5 14.7C257.5 11.5 260.1 8.90002 263.3 8.90002C266.5 8.90002 269.1 11.5 269.1 14.7Z" fill="url(#paint0_radial_254_429)"/>
<path d="M263.4 6.30005L264 14.6H262.9L263.4 6.30005Z" fill="#FFFAEF"/>
<path d="M263.4 22.9001L262.9 14.6001H264L263.4 22.9001Z" fill="#FFFAEF"/>
<path d="M271.7 14.6001L263.4 15.2001V14.1001L271.7 14.6001Z" fill="#FFFAEF"/>
<path d="M255.1 14.6001L263.4 14.1001V15.2001L255.1 14.6001Z" fill="#FFFAEF"/>
<path opacity="0.5" d="M270.5 81.8C270.5 85 267.9 87.6 264.7 87.6C261.5 87.6 258.9 85 258.9 81.8C258.9 78.6 261.5 76 264.7 76C267.9 76 270.5 78.6 270.5 81.8Z" fill="url(#paint1_radial_254_429)"/>
<path d="M264.8 73.4L265.3 81.7H264.2L264.8 73.4Z" fill="#FFFAEF"/>
<path d="M264.7 90.0001L264.2 81.7001H265.3L264.7 90.0001Z" fill="#FFFAEF"/>
<path d="M273.1 81.7001L264.8 82.3001V81.2001L273.1 81.7001Z" fill="#FFFAEF"/>
<path d="M256.5 81.7001L264.8 81.2001V82.3001L256.5 81.7001Z" fill="#FFFAEF"/>
<path opacity="0.5" d="M214.4 240.6C214.4 242.2 213.1 243.5 211.5 243.5C209.9 243.5 208.6 242.2 208.6 240.6C208.6 239 209.9 237.7 211.5 237.7C213.1 237.7 214.4 239 214.4 240.6Z" fill="url(#paint2_radial_254_429)"/>
<path d="M211.6 236.4L211.8 240.5H211.3L211.6 236.4Z" fill="#FFFAEF"/>
<path d="M211.5 244.7L211.3 240.5H211.8L211.5 244.7Z" fill="#FFFAEF"/>
<path d="M215.7 240.5L211.5 240.8V240.2L215.7 240.5Z" fill="#FFFAEF"/>
<path d="M207.4 240.5L211.5 240.2V240.8L207.4 240.5Z" fill="#FFFAEF"/>
<path opacity="0.5" d="M166.5 151.6C166.5 153.2 165.2 154.5 163.6 154.5C162 154.5 160.7 153.2 160.7 151.6C160.7 150 162 148.7 163.6 148.7C165.2 148.7 166.5 150 166.5 151.6Z" fill="url(#paint3_radial_254_429)"/>
<path d="M163.6 147.4L163.9 151.6H163.4L163.6 147.4Z" fill="#FFFAEF"/>
<path d="M163.6 155.7L163.4 151.6H163.9L163.6 155.7Z" fill="#FFFAEF"/>
<path d="M167.8 151.6L163.6 151.9V151.3L167.8 151.6Z" fill="#FFFAEF"/>
<path d="M159.5 151.6L163.6 151.3V151.9L159.5 151.6Z" fill="#FFFAEF"/>
<path opacity="0.5" d="M75.6003 210.1C75.6003 211.7 74.3003 213 72.7003 213C71.1003 213 69.8003 211.7 69.8003 210.1C69.8003 208.5 71.1003 207.2 72.7003 207.2C74.3003 207.3 75.6003 208.5 75.6003 210.1Z" fill="url(#paint4_radial_254_429)"/>
<path d="M72.7 205.9L73 210.1H72.5L72.7 205.9Z" fill="#FFFAEF"/>
<path d="M72.7 214.3L72.5 210.1H73L72.7 214.3Z" fill="#FFFAEF"/>
<path d="M76.9002 210.1L72.7002 210.4V209.8L76.9002 210.1Z" fill="#FFFAEF"/>
<path d="M68.6001 210.1L72.7001 209.8V210.4L68.6001 210.1Z" fill="#FFFAEF"/>
<path opacity="0.5" d="M81.7004 283.3C81.7004 284.9 80.4004 286.2 78.8004 286.2C77.2004 286.2 75.9004 284.9 75.9004 283.3C75.9004 281.7 77.2004 280.4 78.8004 280.4C80.4004 280.4 81.7004 281.7 81.7004 283.3Z" fill="url(#paint5_radial_254_429)"/>
<path d="M78.9001 279.1L79.1001 283.3H78.6001L78.9001 279.1Z" fill="#FFFAEF"/>
<path d="M78.8001 287.5L78.6001 283.3H79.1001L78.8001 287.5Z" fill="#FFFAEF"/>
<path d="M83.0003 283.3L78.8003 283.6V283L83.0003 283.3Z" fill="#FFFAEF"/>
<path d="M74.7002 283.3L78.8002 283V283.6L74.7002 283.3Z" fill="#FFFAEF"/>
<path opacity="0.5" d="M97.4001 13.8C97.4001 15.4 96.1001 16.7 94.5001 16.7C92.9001 16.7 91.6001 15.4 91.6001 13.8C91.6001 12.2 92.9001 10.9 94.5001 10.9C96.1001 10.9 97.4001 12.2 97.4001 13.8Z" fill="url(#paint6_radial_254_429)"/>
<path d="M94.5998 9.59998L94.7998 13.8H94.2998L94.5998 9.59998Z" fill="#FFFAEF"/>
<path d="M94.4998 17.8999L94.2998 13.7999H94.7998L94.4998 17.8999Z" fill="#FFFAEF"/>
<path d="M98.7001 13.8L94.6001 14.1V13.5L98.7001 13.8Z" fill="#FFFAEF"/>
<path d="M90.3999 13.8L94.5999 13.5V14.1L90.3999 13.8Z" fill="#FFFAEF"/>
<path opacity="0.5" d="M252.1 61.2001C252.1 62.8001 250.8 64.1 249.2 64.1C247.6 64.1 246.3 62.8001 246.3 61.2001C246.3 59.6001 247.6 58.3 249.2 58.3C250.8 58.3 252.1 59.6001 252.1 61.2001Z" fill="url(#paint7_radial_254_429)"/>
<path d="M249.2 57L249.5 61.1H249L249.2 57Z" fill="#FFFAEF"/>
<path d="M249.2 65.3L249 61.1H249.5L249.2 65.3Z" fill="#FFFAEF"/>
<path d="M253.4 61.1L249.2 61.4001V60.8L253.4 61.1Z" fill="#FFFAEF"/>
<path d="M245.1 61.1L249.2 60.8V61.4001L245.1 61.1Z" fill="#FFFAEF"/>
<path opacity="0.5" d="M275.2 203.7C275.2 205.3 273.9 206.6 272.3 206.6C270.7 206.6 269.4 205.3 269.4 203.7C269.4 202.1 270.7 200.8 272.3 200.8C273.9 200.8 275.2 202.1 275.2 203.7Z" fill="url(#paint8_radial_254_429)"/>
<path d="M272.3 199.5L272.6 203.7H272L272.3 199.5Z" fill="#FFFAEF"/>
<path d="M272.3 207.8L272 203.7H272.6L272.3 207.8Z" fill="#FFFAEF"/>
<path d="M276.5 203.7L272.3 203.9V203.4L276.5 203.7Z" fill="#FFFAEF"/>
<path d="M268.2 203.7L272.3 203.4V203.9L268.2 203.7Z" fill="#FFFAEF"/>
<path opacity="0.5" d="M321 121.6C321 123.2 319.7 124.5 318.1 124.5C316.5 124.5 315.2 123.2 315.2 121.6C315.2 120 316.5 118.7 318.1 118.7C319.7 118.7 321 120 321 121.6Z" fill="url(#paint9_radial_254_429)"/>
<path d="M318.1 117.4L318.4 121.6H317.8L318.1 117.4Z" fill="#FFFAEF"/>
<path d="M318.1 125.7L317.8 121.6H318.4L318.1 125.7Z" fill="#FFFAEF"/>
<path d="M322.3 121.6L318.1 121.9V121.3L322.3 121.6Z" fill="#FFFAEF"/>
<path d="M313.9 121.6L318.1 121.3V121.9L313.9 121.6Z" fill="#FFFAEF"/>
<path opacity="0.5" d="M27.3 82.3C27.3 83.9 26 85.2 24.4 85.2C22.8 85.2 21.5 83.9 21.5 82.3C21.5 80.7 22.8 79.4 24.4 79.4C26 79.4 27.3 80.7 27.3 82.3Z" fill="url(#paint10_radial_254_429)"/>
<path d="M24.3996 78.1L24.6996 82.3H24.0996L24.3996 78.1Z" fill="#FFFAEF"/>
<path d="M24.3996 86.3999L24.0996 82.2999H24.6996L24.3996 86.3999Z" fill="#FFFAEF"/>
<path d="M28.5999 82.3L24.3999 82.5V82L28.5999 82.3Z" fill="#FFFAEF"/>
<path d="M20.2998 82.3L24.3998 82V82.5L20.2998 82.3Z" fill="#FFFAEF"/>
<path opacity="0.5" d="M187.2 46.3C187.2 47.9 185.9 49.2 184.3 49.2C182.7 49.2 181.4 47.9 181.4 46.3C181.4 44.7 182.7 43.4 184.3 43.4C185.9 43.4 187.2 44.7 187.2 46.3Z" fill="url(#paint11_radial_254_429)"/>
<path d="M184.4 42.1L184.6 46.3H184.1L184.4 42.1Z" fill="#FFFAEF"/>
<path d="M184.4 50.4999L184.1 46.2999H184.6L184.4 50.4999Z" fill="#FFFAEF"/>
<path d="M188.5 46.3L184.4 46.6V46L188.5 46.3Z" fill="#FFFAEF"/>
<path d="M180.2 46.3L184.4 46V46.6L180.2 46.3Z" fill="#FFFAEF"/>
<path opacity="0.5" d="M107.4 78.1001C107.4 79.7001 106.1 81.0001 104.5 81.0001C102.9 81.0001 101.6 79.7001 101.6 78.1001C101.6 76.5001 102.9 75.2001 104.5 75.2001C106.1 75.3001 107.4 76.5001 107.4 78.1001Z" fill="url(#paint12_radial_254_429)"/>
<path d="M104.5 73.9L104.8 78.1H104.2L104.5 73.9Z" fill="#FFFAEF"/>
<path d="M104.5 82.3L104.2 78.1H104.8L104.5 82.3Z" fill="#FFFAEF"/>
<path d="M108.7 78.1L104.5 78.4V77.8L108.7 78.1Z" fill="#FFFAEF"/>
<path d="M100.3 78.1L104.5 77.8V78.4L100.3 78.1Z" fill="#FFFAEF"/>
<path opacity="0.5" d="M254.2 37.2001C254.2 38.8001 252.9 40.1 251.3 40.1C249.7 40.1 248.4 38.8001 248.4 37.2001C248.4 35.6001 249.7 34.3 251.3 34.3C252.9 34.3 254.2 35.6001 254.2 37.2001Z" fill="url(#paint13_radial_254_429)"/>
<path d="M251.3 33L251.6 37.1H251L251.3 33Z" fill="#FFFAEF"/>
<path d="M251.3 41.3L251 37.1H251.6L251.3 41.3Z" fill="#FFFAEF"/>
<path d="M255.5 37.1L251.3 37.4001V36.8L255.5 37.1Z" fill="#FFFAEF"/>
<path d="M247.2 37.1L251.3 36.8V37.4001L247.2 37.1Z" fill="#FFFAEF"/>
<path opacity="0.5" d="M78.1003 376.9C78.1003 378.5 76.8003 379.8 75.2003 379.8C73.6003 379.8 72.3003 378.5 72.3003 376.9C72.3003 375.3 73.6003 374 75.2003 374C76.8003 374 78.1003 375.3 78.1003 376.9Z" fill="url(#paint14_radial_254_429)"/>
<path d="M75.1999 372.7L75.4999 376.9H74.8999L75.1999 372.7Z" fill="#FFFAEF"/>
<path d="M75.1999 381L74.8999 376.9H75.4999L75.1999 381Z" fill="#FFFAEF"/>
<path d="M79.4002 376.9L75.2002 377.1V376.6L79.4002 376.9Z" fill="#FFFAEF"/>
<path d="M71.1001 376.8L75.2001 376.6V377.1L71.1001 376.8Z" fill="#FFFAEF"/>
<path opacity="0.5" d="M266.5 295C266.5 296.6 265.2 297.9 263.6 297.9C262 297.9 260.7 296.6 260.7 295C260.7 293.4 262 292.1 263.6 292.1C265.3 292.1 266.5 293.4 266.5 295Z" fill="url(#paint15_radial_254_429)"/>
<path d="M263.7 290.8L264 294.9H263.4L263.7 290.8Z" fill="#FFFAEF"/>
<path d="M263.7 299.1L263.4 294.9H264L263.7 299.1Z" fill="#FFFAEF"/>
<path d="M267.8 295L263.7 295.2V294.7L267.8 295Z" fill="#FFFAEF"/>
<path d="M259.5 294.9L263.7 294.7V295.2L259.5 294.9Z" fill="#FFFAEF"/>
<path opacity="0.5" d="M68.7997 195.4C68.7997 198.6 66.1997 201.2 62.9997 201.2C59.7997 201.2 57.1997 198.6 57.1997 195.4C57.1997 192.2 59.7997 189.6 62.9997 189.6C66.2997 189.7 68.7997 192.3 68.7997 195.4Z" fill="url(#paint16_radial_254_429)"/>
<path d="M63.1996 187.1L63.6996 195.4H62.5996L63.1996 187.1Z" fill="#FFFAEF"/>
<path d="M63.0996 203.7L62.5996 195.4H63.6996L63.0996 203.7Z" fill="#FFFAEF"/>
<path d="M71.3996 195.4L63.0996 195.9V194.8L71.3996 195.4Z" fill="#FFFAEF"/>
<path d="M54.7998 195.3L63.0998 194.8V195.9L54.7998 195.3Z" fill="#FFFAEF"/>
<path opacity="0.5" d="M221.4 323.1C221.4 326.3 218.8 328.9 215.6 328.9C212.4 328.9 209.8 326.3 209.8 323.1C209.8 319.9 212.4 317.3 215.6 317.3C218.8 317.4 221.4 319.9 221.4 323.1Z" fill="url(#paint17_radial_254_429)"/>
<path d="M215.7 314.8L216.2 323H215.1L215.7 314.8Z" fill="#FFFAEF"/>
<path d="M215.7 331.3L215.1 323H216.2L215.7 331.3Z" fill="#FFFAEF"/>
<path d="M224 323.1L215.7 323.6V322.5L224 323.1Z" fill="#FFFAEF"/>
<path d="M207.4 323L215.7 322.5V323.6L207.4 323Z" fill="#FFFAEF"/>
<path d="M50.5 121.6C50.5 121.9 50.3 122.1 50 122.1C49.7 122.1 49.5 121.9 49.5 121.6C49.5 121.3 49.7 121.1 50 121.1C50.2 121 50.5 121.3 50.5 121.6Z" fill="#FFFAEF"/>
<path d="M79.8999 89.5C79.8999 89.8 79.6999 90 79.3999 90C79.0999 90 78.8999 89.8 78.8999 89.5C78.8999 89.2 79.0999 89 79.3999 89C79.6999 88.9 79.8999 89.2 79.8999 89.5Z" fill="#FFFAEF"/>
<path d="M107.4 121C107.4 121.3 107.2 121.5 106.9 121.5C106.6 121.5 106.4 121.3 106.4 121C106.4 120.7 106.6 120.5 106.9 120.5C107.1 120.5 107.4 120.7 107.4 121Z" fill="#FFFAEF"/>
<path d="M67 46.8C67 47.1 66.8 47.3 66.5 47.3C66.2 47.3 66 47.1 66 46.8C66 46.5 66.2 46.3 66.5 46.3C66.8 46.3 67 46.5 67 46.8Z" fill="#FFFAEF"/>
<path d="M92.6001 36C92.6001 36.3 92.4001 36.5 92.1001 36.5C91.8001 36.5 91.6001 36.3 91.6001 36C91.6001 35.7 91.8001 35.5 92.1001 35.5C92.3001 35.5 92.6001 35.7 92.6001 36Z" fill="#FFFAEF"/>
<path d="M85.3999 29C85.3999 29.3 85.1999 29.5 84.8999 29.5C84.5999 29.5 84.3999 29.3 84.3999 29C84.3999 28.7 84.5999 28.5 84.8999 28.5C85.1999 28.5 85.3999 28.7 85.3999 29Z" fill="#FFFAEF"/>
<path d="M66.5 33C66.5 33.3 66.3 33.5 66 33.5C65.7 33.5 65.5 33.3 65.5 33C65.5 32.7 65.7 32.5 66 32.5C66.3 32.4 66.5 32.7 66.5 33Z" fill="#FFFAEF"/>
<path d="M125.9 58.8C125.9 59.1 125.7 59.3 125.4 59.3C125.1 59.3 124.9 59.1 124.9 58.8C124.9 58.5 125.1 58.3 125.4 58.3C125.6 58.2 125.9 58.5 125.9 58.8Z" fill="#FFFAEF"/>
<path d="M159.1 33C159.1 33.3 158.9 33.5 158.6 33.5C158.3 33.5 158.1 33.3 158.1 33C158.1 32.7 158.3 32.5 158.6 32.5C158.9 32.4 159.1 32.7 159.1 33Z" fill="#FFFAEF"/>
<path d="M229.5 60.5999C229.5 60.8999 229.3 61.0999 229 61.0999C228.7 61.0999 228.5 60.8999 228.5 60.5999C228.5 60.2999 228.7 60.0999 229 60.0999C229.3 59.9999 229.5 60.2999 229.5 60.5999Z" fill="#FFFAEF"/>
<path d="M242.3 23.5C242.3 23.8 242.1 24 241.8 24C241.5 24 241.3 23.8 241.3 23.5C241.3 23.2 241.5 23 241.8 23C242.1 22.9 242.3 23.2 242.3 23.5Z" fill="#FFFAEF"/>
<path d="M96.1002 210.6C96.1002 210.7 96.0002 210.8 95.9002 210.8C95.8002 210.8 95.7002 210.7 95.7002 210.6C95.7002 210.5 95.8002 210.4 95.9002 210.4C96.0002 210.3 96.1002 210.4 96.1002 210.6Z" fill="#FFFAEF"/>
<path d="M100 161.8C100 161.9 99.9001 162 99.8001 162C99.7001 162 99.6001 161.9 99.6001 161.8C99.6001 161.7 99.7001 161.6 99.8001 161.6C99.9001 161.6 100 161.7 100 161.8Z" fill="#FFFAEF"/>
<path d="M137.3 171.9C137.3 172 137.2 172.1 137.1 172.1C137 172.1 136.9 172 136.9 171.9C136.9 171.8 137 171.7 137.1 171.7C137.2 171.7 137.3 171.7 137.3 171.9Z" fill="#FFFAEF"/>
<path d="M17.5001 149.3C17.5001 149.4 17.4001 149.5 17.3001 149.5C17.2001 149.5 17.1001 149.4 17.1001 149.3C17.1001 149.2 17.2001 149.1 17.3001 149.1C17.3001 149.1 17.5001 149.2 17.5001 149.3Z" fill="#FFFAEF"/>
<path d="M86.2999 188.4C86.2999 188.5 86.1999 188.6 86.0999 188.6C85.9999 188.6 85.8999 188.5 85.8999 188.4C85.8999 188.3 85.9999 188.2 86.0999 188.2C86.1999 188.1 86.2999 188.2 86.2999 188.4Z" fill="#FFFAEF"/>
<path d="M83.1998 122.1C83.1998 122.2 83.0998 122.3 82.9998 122.3C82.8998 122.3 82.7998 122.2 82.7998 122.1C82.7998 122 82.8998 121.9 82.9998 121.9C83.0998 121.9 83.1998 122 83.1998 122.1Z" fill="#FFFAEF"/>
<path d="M316.3 162.2C316.3 162.3 316.2 162.4 316.1 162.4C316 162.4 315.9 162.3 315.9 162.2C315.9 162.1 316 162 316.1 162C316.1 161.9 316.3 162.1 316.3 162.2Z" fill="#FFFAEF"/>
<path d="M49.6002 18.9C49.6002 19 49.5002 19.1 49.4002 19.1C49.3002 19.1 49.2002 19 49.2002 18.9C49.2002 18.8 49.3002 18.7 49.4002 18.7C49.5002 18.7 49.6002 18.8 49.6002 18.9Z" fill="#FFFAEF"/>
<path d="M13.5001 23.4C13.5001 23.5 13.4001 23.6 13.3001 23.6C13.2001 23.6 13.1001 23.5 13.1001 23.4C13.1001 23.3 13.2001 23.2 13.3001 23.2C13.4001 23.2 13.5001 23.3 13.5001 23.4Z" fill="#FFFAEF"/>
<path d="M267.3 109.7C267.3 109.8 267.2 109.9 267.1 109.9C267 109.9 266.9 109.8 266.9 109.7C266.9 109.6 267 109.5 267.1 109.5C267.2 109.5 267.3 109.6 267.3 109.7Z" fill="#FFFAEF"/>
<path d="M252.9 94.7C252.9 94.8 252.8 94.9 252.7 94.9C252.6 94.9 252.5 94.8 252.5 94.7C252.5 94.6 252.6 94.5 252.7 94.5C252.8 94.5 252.9 94.6 252.9 94.7Z" fill="#FFFAEF"/>
<path d="M275.4 90.5999C275.4 90.6999 275.3 90.8 275.2 90.8C275.1 90.8 275 90.6999 275 90.5999C275 90.4999 275.1 90.3999 275.2 90.3999C275.3 90.2999 275.4 90.3999 275.4 90.5999Z" fill="#FFFAEF"/>
<path d="M275.7 65.3C275.7 65.4 275.6 65.5 275.5 65.5C275.4 65.5 275.3 65.4 275.3 65.3C275.3 65.2 275.4 65.1 275.5 65.1C275.5 65.1 275.7 65.2 275.7 65.3Z" fill="#FFFAEF"/>
<path d="M282.3 15.2C282.3 15.3 282.2 15.4 282.1 15.4C282 15.4 281.9 15.3 281.9 15.2C281.9 15.1 282 15 282.1 15C282.2 14.9 282.3 15 282.3 15.2Z" fill="#FFFAEF"/>
<path d="M234.9 5.7C234.9 5.8 234.8 5.9 234.7 5.9C234.6 5.9 234.5 5.8 234.5 5.7C234.5 5.6 234.6 5.5 234.7 5.5C234.8 5.5 234.9 5.6 234.9 5.7Z" fill="#FFFAEF"/>
<path d="M263.1 330.7C263.1 330.8 263 330.9 262.9 330.9C262.8 330.9 262.7 330.8 262.7 330.7C262.7 330.6 262.8 330.5 262.9 330.5C263 330.5 263.1 330.6 263.1 330.7Z" fill="#FFFAEF"/>
<path d="M234.5 358.9C234.5 359 234.4 359.1 234.3 359.1C234.2 359.1 234.1 359 234.1 358.9C234.1 358.8 234.2 358.7 234.3 358.7C234.4 358.7 234.5 358.8 234.5 358.9Z" fill="#FFFAEF"/>
<path d="M199.9 350.8C199.9 350.9 199.8 351 199.7 351C199.6 351 199.5 350.9 199.5 350.8C199.5 350.7 199.6 350.6 199.7 350.6C199.8 350.5 199.9 350.6 199.9 350.8Z" fill="#FFFAEF"/>
<path d="M195.1 378.9C195.1 379 195 379.1 194.9 379.1C194.8 379.1 194.7 379 194.7 378.9C194.7 378.8 194.8 378.7 194.9 378.7C195 378.7 195.1 378.8 195.1 378.9Z" fill="#FFFAEF"/>
<path d="M251.1 350.5C251.1 350.6 251 350.7 250.9 350.7C250.8 350.7 250.7 350.6 250.7 350.5C250.7 350.4 250.8 350.3 250.9 350.3C251 350.3 251.1 350.4 251.1 350.5Z" fill="#FFFAEF"/>
<path d="M242.3 328.9C242.3 329 242.2 329.1 242.1 329.1C242 329.1 241.9 329 241.9 328.9C241.9 328.8 242 328.7 242.1 328.7C242.1 328.6 242.3 328.7 242.3 328.9Z" fill="#FFFAEF"/>
<path d="M5.69981 99.4C5.69981 99.5 5.59981 99.6 5.49981 99.6C5.39981 99.6 5.2998 99.5 5.2998 99.4C5.2998 99.3 5.39981 99.2 5.49981 99.2C5.59981 99.2 5.69981 99.3 5.69981 99.4Z" fill="#FFFAEF"/>
<path d="M68.7999 343.6C68.7999 343.7 68.6999 343.8 68.5999 343.8C68.4999 343.8 68.3999 343.7 68.3999 343.6C68.3999 343.5 68.4999 343.4 68.5999 343.4C68.6999 343.3 68.7999 343.4 68.7999 343.6Z" fill="#FFFAEF"/>
<path d="M66.1998 317C66.1998 317.1 66.0998 317.2 65.9998 317.2C65.8998 317.2 65.7998 317.1 65.7998 317C65.7998 316.9 65.8998 316.8 65.9998 316.8C66.0998 316.8 66.1998 316.9 66.1998 317Z" fill="#FFFAEF"/>
<path d="M77.0001 327.9C77.0001 328 76.9001 328.1 76.8001 328.1C76.7001 328.1 76.6001 328 76.6001 327.9C76.6001 327.8 76.7001 327.7 76.8001 327.7C76.9001 327.7 77.0001 327.8 77.0001 327.9Z" fill="#FFFAEF"/>
<path d="M28.6002 327.9C28.6002 328 28.5002 328.1 28.4002 328.1C28.3002 328.1 28.2002 328 28.2002 327.9C28.2002 327.8 28.3002 327.7 28.4002 327.7C28.5002 327.7 28.6002 327.8 28.6002 327.9Z" fill="#FFFAEF"/>
<path d="M30.2999 344.1C30.2999 344.2 30.1999 344.3 30.0999 344.3C29.9999 344.3 29.8999 344.2 29.8999 344.1C29.8999 344 29.9999 343.9 30.0999 343.9C30.1999 343.8 30.2999 343.9 30.2999 344.1Z" fill="#FFFAEF"/>
<path d="M6.19981 344.3C6.19981 344.4 6.09981 344.5 5.99981 344.5C5.89981 344.5 5.7998 344.4 5.7998 344.3C5.7998 344.2 5.89981 344.1 5.99981 344.1C6.09981 344.1 6.19981 344.2 6.19981 344.3Z" fill="#FFFAEF"/>
<path d="M9.10019 358.7C9.10019 358.8 9.0002 358.9 8.9002 358.9C8.8002 358.9 8.7002 358.8 8.7002 358.7C8.7002 358.6 8.8002 358.5 8.9002 358.5C9.0002 358.5 9.10019 358.6 9.10019 358.7Z" fill="#FFFAEF"/>
<path d="M24.9 360.9C24.9 361 24.8 361.1 24.7 361.1C24.6 361.1 24.5 361 24.5 360.9C24.5 360.8 24.6 360.7 24.7 360.7C24.8 360.7 24.9 360.8 24.9 360.9Z" fill="#FFFAEF"/>
<path d="M6.69981 305.5C6.69981 305.6 6.59981 305.7 6.49981 305.7C6.39981 305.7 6.2998 305.6 6.2998 305.5C6.2998 305.4 6.39981 305.3 6.49981 305.3C6.59981 305.3 6.69981 305.4 6.69981 305.5Z" fill="#FFFAEF"/>
<path d="M21.6998 386.2C21.6998 386.3 21.5998 386.4 21.4998 386.4C21.3998 386.4 21.2998 386.3 21.2998 386.2C21.2998 386.1 21.3998 386 21.4998 386C21.5998 386 21.6998 386.1 21.6998 386.2Z" fill="#FFFAEF"/>
<path d="M2.0001 379.2C2.0001 379.3 1.9001 379.4 1.8001 379.4C1.7001 379.4 1.6001 379.3 1.6001 379.2C1.6001 379.1 1.7001 379 1.8001 379C1.9001 378.9 2.0001 379 2.0001 379.2Z" fill="#FFFAEF"/>
<path d="M93.1002 367.1C93.1002 367.2 93.0002 367.3 92.9002 367.3C92.8002 367.3 92.7002 367.2 92.7002 367.1C92.7002 367 92.8002 366.9 92.9002 366.9C93.0002 366.9 93.1002 367 93.1002 367.1Z" fill="#FFFAEF"/>
<path d="M109.6 372.7C109.6 372.8 109.5 372.9 109.4 372.9C109.3 372.9 109.2 372.8 109.2 372.7C109.2 372.6 109.3 372.5 109.4 372.5C109.5 372.5 109.6 372.6 109.6 372.7Z" fill="#FFFAEF"/>
<path d="M101.7 351C101.7 351.1 101.6 351.2 101.5 351.2C101.4 351.2 101.3 351.1 101.3 351C101.3 350.9 101.4 350.8 101.5 350.8C101.6 350.8 101.7 350.9 101.7 351Z" fill="#FFFAEF"/>
<path d="M105 309.6C105 309.7 104.9 309.8 104.8 309.8C104.7 309.8 104.6 309.7 104.6 309.6C104.6 309.5 104.7 309.4 104.8 309.4C104.9 309.4 105 309.5 105 309.6Z" fill="#FFFAEF"/>
<path d="M108.2 265.9C108.2 266 108.1 266.1 108 266.1C107.9 266.1 107.8 266 107.8 265.9C107.8 265.8 107.9 265.7 108 265.7C108.1 265.7 108.2 265.8 108.2 265.9Z" fill="#FFFAEF"/>
<path d="M119.7 261C119.7 261.1 119.6 261.2 119.5 261.2C119.4 261.2 119.3 261.1 119.3 261C119.3 260.9 119.4 260.8 119.5 260.8C119.6 260.8 119.7 260.9 119.7 261Z" fill="#FFFAEF"/>
<path d="M86.2999 243.4C86.2999 243.5 86.1999 243.6 86.0999 243.6C85.9999 243.6 85.8999 243.5 85.8999 243.4C85.8999 243.3 85.9999 243.2 86.0999 243.2C86.1999 243.2 86.2999 243.3 86.2999 243.4Z" fill="#FFFAEF"/>
<path d="M88.6998 230.6C88.6998 230.7 88.5998 230.8 88.4998 230.8C88.3998 230.8 88.2998 230.7 88.2998 230.6C88.2998 230.5 88.3998 230.4 88.4998 230.4C88.5998 230.4 88.6998 230.5 88.6998 230.6Z" fill="#FFFAEF"/>
<path d="M2.0001 49.5C2.0001 49.6 1.9001 49.7001 1.8001 49.7001C1.7001 49.7001 1.6001 49.6 1.6001 49.5C1.6001 49.4 1.7001 49.3 1.8001 49.3C1.9001 49.3 2.0001 49.4 2.0001 49.5Z" fill="#FFFAEF"/>
<path d="M229.2 147.4C229.2 147.5 229.1 147.6 229 147.6C228.9 147.6 228.8 147.5 228.8 147.4C228.8 147.3 228.9 147.2 229 147.2C229.1 147.2 229.2 147.3 229.2 147.4Z" fill="#FFFAEF"/>
<path d="M236 121.6C236 121.7 235.9 121.8 235.8 121.8C235.7 121.8 235.6 121.7 235.6 121.6C235.6 121.5 235.7 121.4 235.8 121.4C235.9 121.3 236 121.4 236 121.6Z" fill="#FFFAEF"/>
<path d="M224.2 94.9C224.2 95 224.1 95.1 224 95.1C223.9 95.1 223.8 95 223.8 94.9C223.8 94.8 223.9 94.7 224 94.7C224.1 94.7 224.2 94.8 224.2 94.9Z" fill="#FFFAEF"/>
<path d="M244.5 82C244.5 82.1 244.4 82.2 244.3 82.2C244.2 82.2 244.1 82.1 244.1 82C244.1 81.9 244.2 81.8 244.3 81.8C244.4 81.8 244.5 81.9 244.5 82Z" fill="#FFFAEF"/>
<path d="M166 11.1C166 11.2 165.9 11.3 165.8 11.3C165.7 11.3 165.6 11.2 165.6 11.1C165.6 11 165.7 10.9 165.8 10.9C165.8 10.9 166 11 166 11.1Z" fill="#FFFAEF"/>
<path d="M182.5 9.2C182.5 9.3 182.4 9.4 182.3 9.4C182.2 9.4 182.1 9.3 182.1 9.2C182.1 9.1 182.2 9 182.3 9C182.4 9 182.5 9 182.5 9.2Z" fill="#FFFAEF"/>
<path d="M220.9 70.9C220.9 71 220.8 71.1 220.7 71.1C220.6 71.1 220.5 71 220.5 70.9C220.5 70.8 220.6 70.7 220.7 70.7C220.8 70.7 220.9 70.8 220.9 70.9Z" fill="#FFFAEF"/>
<path d="M220.1 51.2C220.1 51.3 220 51.4 219.9 51.4C219.8 51.4 219.7 51.3 219.7 51.2C219.7 51.1 219.8 51 219.9 51C220 51 220.1 51.1 220.1 51.2Z" fill="#FFFAEF"/>
<path d="M208.9 62.4C208.9 62.5 208.8 62.5999 208.7 62.5999C208.6 62.5999 208.5 62.5 208.5 62.4C208.5 62.3 208.6 62.2 208.7 62.2C208.8 62.2 208.9 62.3 208.9 62.4Z" fill="#FFFAEF"/>
<path d="M141.3 5.50005C141.3 5.60005 141.2 5.70005 141.1 5.70005C141 5.70005 140.9 5.60005 140.9 5.50005C140.9 5.40005 141 5.30005 141.1 5.30005C141.2 5.30005 141.3 5.40005 141.3 5.50005Z" fill="#FFFAEF"/>
<path d="M137.5 84.3C137.5 84.4 137.4 84.5 137.3 84.5C137.2 84.5 137.1 84.4 137.1 84.3C137.1 84.2 137.2 84.1 137.3 84.1C137.4 84.1 137.5 84.2 137.5 84.3Z" fill="#FFFAEF"/>
<path d="M139.4 73.4C139.4 73.5 139.3 73.6 139.2 73.6C139.1 73.6 139 73.5 139 73.4C139 73.3 139.1 73.2 139.2 73.2C139.3 73.2 139.4 73.3 139.4 73.4Z" fill="#FFFAEF"/>
<path d="M152.3 87C152.3 87.1 152.2 87.2 152.1 87.2C152 87.2 151.9 87.1 151.9 87C151.9 86.9 152 86.8 152.1 86.8C152.2 86.8 152.3 86.9 152.3 87Z" fill="#FFFAEF"/>
<path d="M151.2 72.3C151.2 72.4 151.1 72.5 151 72.5C150.9 72.5 150.8 72.4 150.8 72.3C150.8 72.2 150.9 72.1 151 72.1C151.1 72.1 151.2 72.2 151.2 72.3Z" fill="#FFFAEF"/>
<path d="M141.8 101.9C141.8 102 141.7 102.1 141.6 102.1C141.5 102.1 141.4 102 141.4 101.9C141.4 101.8 141.5 101.7 141.6 101.7C141.7 101.7 141.8 101.8 141.8 101.9Z" fill="#FFFAEF"/>
<path d="M119.8 83C119.8 83.1 119.7 83.1 119.7 83.1C119.6 83.1 119.6 83 119.6 83C119.6 82.9 119.7 82.9 119.7 82.9C119.8 82.9 119.8 83 119.8 83Z" fill="#FFFAEF"/>
<path d="M136.9 60C136.9 60.1 136.8 60.1 136.8 60.1C136.7 60.1 136.7 60 136.7 60C136.7 59.9 136.8 59.9 136.8 59.9C136.9 59.9 136.9 60 136.9 60Z" fill="#FFFAEF"/>
<path d="M137.6 68.2C137.6 68.3 137.5 68.3 137.5 68.3C137.4 68.3 137.4 68.2 137.4 68.2C137.4 68.1 137.5 68.1 137.5 68.1C137.6 68.1 137.6 68.1 137.6 68.2Z" fill="#FFFAEF"/>
<path d="M9.5999 135C9.5999 135.1 9.4999 135.1 9.4999 135.1C9.3999 135.1 9.3999 135 9.3999 135C9.3999 134.9 9.4999 134.9 9.4999 134.9C9.5999 134.9 9.5999 135 9.5999 135Z" fill="#FFFAEF"/>
<path d="M200.9 25.2999C200.9 25.3999 200.8 25.4 200.8 25.4C200.7 25.4 200.7 25.2999 200.7 25.2999C200.7 25.1999 200.8 25.2 200.8 25.2L200.9 25.2999Z" fill="#FFFAEF"/>
<path d="M195 13.8C195 13.9 194.9 13.9 194.9 13.9C194.8 13.9 194.8 13.8 194.8 13.8C194.8 13.7 194.9 13.7 194.9 13.7C194.9 13.7 195 13.7 195 13.8Z" fill="#FFFAEF"/>
<path d="M211.2 29.5C211.2 29.6 211.1 29.6 211.1 29.6C211 29.6 211 29.5 211 29.5C211 29.4 211.1 29.4 211.1 29.4C211.2 29.4 211.2 29.5 211.2 29.5Z" fill="#FFFAEF"/>
<path d="M219.7 10.9C219.7 11 219.6 11 219.6 11C219.5 11 219.5 10.9 219.5 10.9C219.5 10.8 219.6 10.8 219.6 10.8C219.7 10.8 219.7 10.9 219.7 10.9Z" fill="#FFFAEF"/>
<path d="M170.2 5.00002C170.2 5.10002 170.1 5.10002 170.1 5.10002C170 5.10002 170 5.00002 170 5.00002L170.1 4.90002L170.2 5.00002Z" fill="#FFFAEF"/>
<path d="M146.8 19.2C146.8 19.3 146.7 19.3 146.7 19.3C146.6 19.3 146.6 19.2 146.6 19.2C146.6 19.1 146.7 19.1 146.7 19.1C146.8 19 146.8 19.1 146.8 19.2Z" fill="#FFFAEF"/>
<path d="M156 9.20001C156 9.30001 155.9 9.30002 155.9 9.30002C155.8 9.30002 155.8 9.20001 155.8 9.20001C155.8 9.10001 155.9 9.10002 155.9 9.10002C156 9.00002 156 9.10001 156 9.20001Z" fill="#FFFAEF"/>
<path d="M247.3 15.2C247.3 15.3 247.2 15.3 247.2 15.3C247.1 15.3 247.1 15.2 247.1 15.2C247.1 15.1 247.2 15.1 247.2 15.1C247.2 15 247.3 15.1 247.3 15.2Z" fill="#FFFAEF"/>
<path d="M249.6 7.10004C249.6 7.20004 249.5 7.20004 249.5 7.20004C249.4 7.20004 249.4 7.10004 249.4 7.10004C249.4 7.00004 249.5 7.00004 249.5 7.00004C249.6 6.90004 249.6 7.00004 249.6 7.10004Z" fill="#FFFAEF"/>
<path d="M251 24C251 24.1 250.9 24.1 250.9 24.1C250.8 24.1 250.8 24 250.8 24C250.8 23.9 250.9 23.9 250.9 23.9C251 23.9 251 23.9 251 24Z" fill="#FFFAEF"/>
<path d="M275.5 4.90005C275.5 5.00005 275.4 5.00005 275.4 5.00005C275.3 5.00005 275.3 4.90005 275.3 4.90005L275.4 4.80005C275.5 4.80005 275.5 4.90005 275.5 4.90005Z" fill="#FFFAEF"/>
<path d="M225.4 33.5C225.4 33.6 225.3 33.6 225.3 33.6C225.2 33.6 225.2 33.5 225.2 33.5C225.2 33.4 225.3 33.4 225.3 33.4C225.4 33.4 225.4 33.4 225.4 33.5Z" fill="#FFFAEF"/>
<path d="M179.7 99.4C179.7 99.5 179.6 99.5 179.6 99.5C179.5 99.5 179.5 99.4 179.5 99.4C179.5 99.3 179.6 99.3 179.6 99.3C179.7 99.3 179.7 99.4 179.7 99.4Z" fill="#FFFAEF"/>
<path d="M180.6 87.2C180.6 87.3 180.5 87.3 180.5 87.3C180.4 87.3 180.4 87.2 180.4 87.2C180.4 87.1 180.5 87.1 180.5 87.1L180.6 87.2Z" fill="#FFFAEF"/>
<path d="M160.8 99.4C160.8 99.5 160.7 99.5 160.7 99.5C160.6 99.5 160.6 99.4 160.6 99.4C160.6 99.3 160.7 99.3 160.7 99.3C160.8 99.3 160.8 99.4 160.8 99.4Z" fill="#FFFAEF"/>
<path d="M120 130.1C120 130.2 119.9 130.2 119.9 130.2C119.8 130.2 119.8 130.1 119.8 130.1C119.8 130 119.9 130 119.9 130L120 130.1Z" fill="#FFFAEF"/>
<path d="M112.7 134.9C112.7 135 112.6 135 112.6 135C112.5 135 112.5 134.9 112.5 134.9C112.5 134.8 112.6 134.8 112.6 134.8C112.7 134.8 112.7 134.9 112.7 134.9Z" fill="#FFFAEF"/>
<path d="M109.5 147.2C109.5 147.3 109.4 147.3 109.4 147.3C109.3 147.3 109.3 147.2 109.3 147.2C109.3 147.1 109.4 147.1 109.4 147.1C109.4 147.1 109.5 147.1 109.5 147.2Z" fill="#FFFAEF"/>
<path d="M88.4998 145.4C88.4998 145.5 88.3998 145.5 88.3998 145.5C88.2998 145.5 88.2998 145.4 88.2998 145.4C88.2998 145.3 88.3998 145.3 88.3998 145.3C88.4998 145.2 88.4998 145.3 88.4998 145.4Z" fill="#FFFAEF"/>
<path d="M117.2 118.7C117.2 118.8 117.1 118.8 117.1 118.8C117 118.8 117 118.7 117 118.7C117 118.6 117.1 118.6 117.1 118.6C117.1 118.6 117.2 118.6 117.2 118.7Z" fill="#FFFAEF"/>
<path d="M117.2 162.1C117.2 162.2 117.1 162.2 117.1 162.2C117 162.2 117 162.1 117 162.1C117 162 117.1 162 117.1 162C117.1 161.9 117.2 162 117.2 162.1Z" fill="#FFFAEF"/>
<path d="M134.5 155.7C134.5 155.8 134.4 155.8 134.4 155.8C134.3 155.8 134.3 155.7 134.3 155.7C134.3 155.6 134.4 155.6 134.4 155.6C134.5 155.6 134.5 155.7 134.5 155.7Z" fill="#FFFAEF"/>
<path d="M141.9 137.8C141.9 137.9 141.8 137.9 141.8 137.9C141.7 137.9 141.7 137.8 141.7 137.8L141.8 137.7C141.9 137.6 141.9 137.7 141.9 137.8Z" fill="#FFFAEF"/>
<path d="M194.8 194.8C194.8 194.9 194.7 194.9 194.7 194.9C194.6 194.9 194.6 194.8 194.6 194.8C194.6 194.7 194.7 194.7 194.7 194.7C194.8 194.7 194.8 194.8 194.8 194.8Z" fill="#FFFAEF"/>
<path d="M84.4998 259C84.4998 259.1 84.3998 259.1 84.3998 259.1C84.2998 259.1 84.2998 259 84.2998 259C84.2998 258.9 84.3998 258.9 84.3998 258.9L84.4998 259Z" fill="#FFFAEF"/>
<path d="M95.7 252.4C95.7 252.5 95.6 252.5 95.6 252.5C95.5 252.5 95.5 252.4 95.5 252.4C95.5 252.3 95.6 252.3 95.6 252.3C95.7 252.2 95.7 252.3 95.7 252.4Z" fill="#FFFAEF"/>
<path d="M72.5999 237.7C72.5999 237.8 72.4999 237.8 72.4999 237.8C72.3999 237.8 72.3999 237.7 72.3999 237.7C72.3999 237.6 72.4999 237.6 72.4999 237.6C72.4999 237.6 72.5999 237.6 72.5999 237.7Z" fill="#FFFAEF"/>
<path d="M88.8001 218C88.8001 218.1 88.7001 218.1 88.7001 218.1C88.6001 218.1 88.6001 218 88.6001 218C88.6001 217.9 88.7001 217.9 88.7001 217.9C88.8001 217.9 88.8001 217.9 88.8001 218Z" fill="#FFFAEF"/>
<path d="M107.5 233.3C107.5 233.4 107.4 233.4 107.4 233.4C107.3 233.4 107.3 233.3 107.3 233.3C107.3 233.2 107.4 233.2 107.4 233.2C107.4 233.1 107.5 233.2 107.5 233.3Z" fill="#FFFAEF"/>
<path d="M174.5 270C174.5 270.1 174.4 270.1 174.4 270.1C174.3 270.1 174.3 270 174.3 270C174.3 269.9 174.4 269.9 174.4 269.9L174.5 270Z" fill="#FFFAEF"/>
<path d="M181.6 250.2C181.6 250.3 181.5 250.3 181.5 250.3C181.4 250.3 181.4 250.2 181.4 250.2C181.4 250.1 181.5 250.1 181.5 250.1L181.6 250.2Z" fill="#FFFAEF"/>
<path d="M204.2 254C204.2 254.1 204.1 254.1 204.1 254.1C204 254.1 204 254 204 254C204 253.9 204.1 253.9 204.1 253.9C204.2 253.9 204.2 253.9 204.2 254Z" fill="#FFFAEF"/>
<path d="M194.7 264C194.7 264.1 194.6 264.1 194.6 264.1C194.5 264.1 194.5 264 194.5 264C194.5 263.9 194.6 263.9 194.6 263.9C194.7 263.9 194.7 264 194.7 264Z" fill="#FFFAEF"/>
<path d="M195.5 250C195.5 250.1 195.4 250.1 195.4 250.1C195.3 250.1 195.3 250 195.3 250C195.3 249.9 195.4 249.9 195.4 249.9C195.5 249.9 195.5 249.9 195.5 250Z" fill="#FFFAEF"/>
<path d="M186.6 286.2C186.6 286.3 186.5 286.3 186.5 286.3C186.4 286.3 186.4 286.2 186.4 286.2C186.4 286.1 186.5 286.1 186.5 286.1L186.6 286.2Z" fill="#FFFAEF"/>
<path d="M204.2 273.7C204.2 273.8 204.1 273.8 204.1 273.8C204 273.8 204 273.7 204 273.7C204 273.6 204.1 273.6 204.1 273.6C204.2 273.6 204.2 273.7 204.2 273.7Z" fill="#FFFAEF"/>
<path d="M176.7 319.1C176.7 319.2 176.6 319.2 176.6 319.2C176.5 319.2 176.5 319.1 176.5 319.1C176.5 319 176.6 319 176.6 319C176.7 319 176.7 319.1 176.7 319.1Z" fill="#FFFAEF"/>
<path d="M147.3 338.7C147.3 338.8 147.2 338.8 147.2 338.8C147.1 338.8 147.1 338.7 147.1 338.7C147.1 338.6 147.2 338.6 147.2 338.6C147.3 338.6 147.3 338.6 147.3 338.7Z" fill="#FFFAEF"/>
<path d="M172.4 372.9C172.4 373 172.3 373 172.3 373C172.2 373 172.2 372.9 172.2 372.9C172.2 372.8 172.3 372.8 172.3 372.8C172.4 372.8 172.4 372.9 172.4 372.9Z" fill="#FFFAEF"/>
<path d="M197.9 361.6C197.9 361.7 197.8 361.7 197.8 361.7C197.7 361.7 197.7 361.6 197.7 361.6C197.7 361.5 197.8 361.5 197.8 361.5L197.9 361.6Z" fill="#FFFAEF"/>
<path d="M203.5 330.7C203.5 330.8 203.4 330.8 203.4 330.8C203.3 330.8 203.3 330.7 203.3 330.7C203.3 330.6 203.4 330.6 203.4 330.6C203.5 330.6 203.5 330.6 203.5 330.7Z" fill="#FFFAEF"/>
<path d="M218 342.9C218 343 217.9 343 217.9 343C217.8 343 217.8 342.9 217.8 342.9C217.8 342.8 217.9 342.8 217.9 342.8C217.9 342.8 218 342.8 218 342.9Z" fill="#FFFAEF"/>
<path d="M236.5 317.6C236.5 317.7 236.4 317.7 236.4 317.7C236.3 317.7 236.3 317.6 236.3 317.6C236.3 317.5 236.4 317.5 236.4 317.5C236.5 317.5 236.5 317.5 236.5 317.6Z" fill="#FFFAEF"/>
<path d="M221.5 309.4C221.5 309.5 221.4 309.5 221.4 309.5C221.3 309.5 221.3 309.4 221.3 309.4C221.3 309.3 221.4 309.3 221.4 309.3C221.5 309.3 221.5 309.3 221.5 309.4Z" fill="#FFFAEF"/>
<path d="M194.4 304.9C194.4 305 194.3 305 194.3 305C194.2 305 194.2 304.9 194.2 304.9C194.2 304.8 194.3 304.8 194.3 304.8L194.4 304.9Z" fill="#FFFAEF"/>
<path d="M201.6 299.8C201.6 299.9 201.5 299.9 201.5 299.9C201.4 299.9 201.4 299.8 201.4 299.8C201.4 299.7 201.5 299.7 201.5 299.7C201.6 299.7 201.6 299.8 201.6 299.8Z" fill="#FFFAEF"/>
<path d="M217.9 273.6C217.9 273.7 217.8 273.7 217.8 273.7C217.7 273.7 217.7 273.6 217.7 273.6C217.7 273.5 217.8 273.5 217.8 273.5C217.8 273.5 217.9 273.5 217.9 273.6Z" fill="#FFFAEF"/>
<path d="M237.4 234.3C237.4 234.4 237.3 234.4 237.3 234.4C237.2 234.4 237.2 234.3 237.2 234.3C237.2 234.2 237.3 234.2 237.3 234.2C237.3 234.2 237.4 234.2 237.4 234.3Z" fill="#FFFAEF"/>
<path d="M57.4002 36C57.4002 36.1 57.3002 36.1 57.3002 36.1C57.2002 36.1 57.2002 36 57.2002 36C57.2002 35.9 57.3002 35.9 57.3002 35.9C57.4002 35.9 57.4002 36 57.4002 36Z" fill="#FFFAEF"/>
<path d="M228.5 166.7C228.5 166.8 228.4 166.8 228.4 166.8C228.3 166.8 228.3 166.7 228.3 166.7C228.3 166.6 228.4 166.6 228.4 166.6C228.5 166.6 228.5 166.6 228.5 166.7Z" fill="#FFFAEF"/>
<path d="M236.1 157.1C236.1 157.2 236 157.2 236 157.2C235.9 157.2 235.9 157.1 235.9 157.1C235.9 157 236 157 236 157L236.1 157.1Z" fill="#FFFAEF"/>
<path d="M195.4 110.1C195.4 110.2 195.3 110.2 195.3 110.2C195.2 110.2 195.2 110.1 195.2 110.1C195.2 110 195.3 110 195.3 110C195.4 110 195.4 110 195.4 110.1Z" fill="#FFFAEF"/>
<path d="M247.3 108.8C247.3 108.9 247.2 108.9 247.2 108.9C247.1 108.9 247.1 108.8 247.1 108.8C247.1 108.7 247.2 108.7 247.2 108.7L247.3 108.8Z" fill="#FFFAEF"/>
<path d="M236.2 51.0001C236.2 51.1001 236.1 51.1001 236.1 51.1001C236 51.1001 236 51.0001 236 51.0001C236 50.9001 236.1 50.9001 236.1 50.9001C236.1 50.8001 236.2 50.9001 236.2 51.0001Z" fill="#FFFAEF"/>
<path d="M355.9 43.4001C355.9 43.5001 355.8 43.5 355.8 43.5C355.7 43.5 355.7 43.4001 355.7 43.4001L355.8 43.3L355.9 43.4001Z" fill="#FFFAEF"/>
<path d="M352.7 15.3C352.7 15.4 352.6 15.4 352.6 15.4C352.5 15.4 352.5 15.3 352.5 15.3C352.5 15.2 352.6 15.2 352.6 15.2C352.7 15.2 352.7 15.2 352.7 15.3Z" fill="#FFFAEF"/>
<path d="M328.5 0.1C328.5 0.2 328.4 0.2 328.4 0.2C328.3 0.2 328.3 0.1 328.3 0.1L328.4 0L328.5 0.1Z" fill="#FFFAEF"/>
<path d="M308 14.1C308 14.2 307.9 14.2 307.9 14.2C307.8 14.2 307.8 14.1 307.8 14.1C307.8 14 307.9 14 307.9 14L308 14.1Z" fill="#FFFAEF"/>
<path d="M300.6 25.2C300.6 25.3 300.5 25.3 300.5 25.3C300.4 25.3 300.4 25.2 300.4 25.2C300.4 25.1 300.5 25.1 300.5 25.1C300.6 25.1 300.6 25.1 300.6 25.2Z" fill="#FFFAEF"/>
<path d="M348.3 5.19998C348.3 5.29998 348.2 5.29998 348.2 5.29998C348.1 5.29998 348.1 5.19998 348.1 5.19998L348.2 5.09998C348.2 5.09998 348.3 5.09998 348.3 5.19998Z" fill="#FFFAEF"/>
<path d="M345 49.2C345 49.3 344.9 49.3 344.9 49.3C344.8 49.3 344.8 49.2 344.8 49.2C344.8 49.1 344.9 49.1 344.9 49.1C344.9 49.1 345 49.1 345 49.2Z" fill="#FFFAEF"/>
<path d="M351.5 35C351.5 35.1 351.4 35.1 351.4 35.1C351.3 35.1 351.3 35 351.3 35C351.3 34.9 351.4 34.9 351.4 34.9L351.5 35Z" fill="#FFFAEF"/>
<path d="M359.1 64C359.1 64.1 359 64.1 359 64.1C358.9 64.1 358.9 64 358.9 64C358.9 63.9 359 63.9 359 63.9L359.1 64Z" fill="#FFFAEF"/>
<path d="M304 117.3C304 117.4 303.9 117.4 303.9 117.4C303.8 117.4 303.8 117.3 303.8 117.3C303.8 117.2 303.9 117.2 303.9 117.2C303.9 117.2 304 117.2 304 117.3Z" fill="#FFFAEF"/>
<path d="M313.5 106.6C313.5 106.7 313.4 106.7 313.4 106.7C313.3 106.7 313.3 106.6 313.3 106.6C313.3 106.5 313.4 106.5 313.4 106.5C313.5 106.5 313.5 106.5 313.5 106.6Z" fill="#FFFAEF"/>
<path d="M327.3 113C327.3 113.1 327.2 113.1 327.2 113.1C327.1 113.1 327.1 113 327.1 113C327.1 112.9 327.2 112.9 327.2 112.9L327.3 113Z" fill="#FFFAEF"/>
<path d="M321.3 132.5C321.3 132.6 321.2 132.6 321.2 132.6C321.1 132.6 321.1 132.5 321.1 132.5C321.1 132.4 321.2 132.4 321.2 132.4C321.3 132.3 321.3 132.4 321.3 132.5Z" fill="#FFFAEF"/>
<path d="M308.7 144.9C308.7 145 308.6 145 308.6 145C308.5 145 308.5 144.9 308.5 144.9C308.5 144.8 308.6 144.8 308.6 144.8L308.7 144.9Z" fill="#FFFAEF"/>
<path d="M333.2 13.7C333.2 13.8 333.1 13.8 333.1 13.8C333 13.8 333 13.7 333 13.7C333 13.6 333.1 13.6 333.1 13.6C333.2 13.6 333.2 13.6 333.2 13.7Z" fill="#FFFAEF"/>
<path d="M317.4 0.199976C317.4 0.299976 317.3 0.299976 317.3 0.299976C317.2 0.299976 317.2 0.199976 317.2 0.199976L317.3 0.0999756L317.4 0.199976Z" fill="#FFFAEF"/>
<path d="M278.2 121.9C278.2 122 278.1 122 278.1 122C278 122 278 121.9 278 121.9C278 121.8 278.1 121.8 278.1 121.8C278.2 121.7 278.2 121.8 278.2 121.9Z" fill="#FFFAEF"/>
<path d="M300.5 106.5C300.5 106.6 300.4 106.6 300.4 106.6C300.3 106.6 300.3 106.5 300.3 106.5C300.3 106.4 300.4 106.4 300.4 106.4C300.4 106.3 300.5 106.4 300.5 106.5Z" fill="#FFFAEF"/>
<path d="M284 139C284 139.1 283.9 139.1 283.9 139.1C283.8 139.1 283.8 139 283.8 139C283.8 138.9 283.9 138.9 283.9 138.9C283.9 138.9 284 138.9 284 139Z" fill="#FFFAEF"/>
<path d="M303.7 135.3C303.7 135.4 303.6 135.4 303.6 135.4C303.5 135.4 303.5 135.3 303.5 135.3C303.5 135.2 303.6 135.2 303.6 135.2C303.7 135.2 303.7 135.3 303.7 135.3Z" fill="#FFFAEF"/>
<path d="M348.2 142C348.2 142.1 348.1 142.1 348.1 142.1C348 142.1 348 142 348 142C348 141.9 348.1 141.9 348.1 141.9L348.2 142Z" fill="#FFFAEF"/>
<path d="M333.4 154.3C333.4 154.4 333.3 154.4 333.3 154.4C333.2 154.4 333.2 154.3 333.2 154.3C333.2 154.2 333.3 154.2 333.3 154.2C333.3 154.2 333.4 154.2 333.4 154.3Z" fill="#FFFAEF"/>
<path d="M339.9 146C339.9 146.1 339.8 146.1 339.8 146.1C339.7 146.1 339.7 146 339.7 146C339.7 145.9 339.8 145.9 339.8 145.9C339.9 145.9 339.9 146 339.9 146Z" fill="#FFFAEF"/>
<path d="M348.4 171.9C348.4 172 348.3 172 348.3 172C348.2 172 348.2 171.9 348.2 171.9C348.2 171.8 348.3 171.8 348.3 171.8C348.3 171.8 348.4 171.8 348.4 171.9Z" fill="#FFFAEF"/>
<path d="M354.1 164.1C354.1 164.2 354 164.2 354 164.2C353.9 164.2 353.9 164.1 353.9 164.1C353.9 164 354 164 354 164L354.1 164.1Z" fill="#FFFAEF"/>
<path d="M348.6 218.2C348.6 218.3 348.5 218.3 348.5 218.3C348.4 218.3 348.4 218.2 348.4 218.2C348.4 218.1 348.5 218.1 348.5 218.1C348.6 218.1 348.6 218.1 348.6 218.2Z" fill="#FFFAEF"/>
<path d="M342 238.4C342 238.5 341.9 238.5 341.9 238.5C341.8 238.5 341.8 238.4 341.8 238.4C341.8 238.3 341.9 238.3 341.9 238.3L342 238.4Z" fill="#FFFAEF"/>
<path d="M329.5 247.1C329.5 247.2 329.4 247.2 329.4 247.2C329.3 247.2 329.3 247.1 329.3 247.1C329.3 247 329.4 247 329.4 247C329.5 246.9 329.5 247 329.5 247.1Z" fill="#FFFAEF"/>
<path d="M322.6 227.6C322.6 227.7 322.5 227.7 322.5 227.7C322.4 227.7 322.4 227.6 322.4 227.6C322.4 227.5 322.5 227.5 322.5 227.5C322.6 227.4 322.6 227.5 322.6 227.6Z" fill="#FFFAEF"/>
<path d="M302.3 249.1C302.3 249.2 302.2 249.2 302.2 249.2C302.1 249.2 302.1 249.1 302.1 249.1C302.1 249 302.2 249 302.2 249C302.2 249 302.3 249 302.3 249.1Z" fill="#FFFAEF"/>
<path d="M350.8 265.2C350.8 265.3 350.7 265.3 350.7 265.3C350.6 265.3 350.6 265.2 350.6 265.2C350.6 265.1 350.7 265.1 350.7 265.1C350.8 265.1 350.8 265.2 350.8 265.2Z" fill="#FFFAEF"/>
<path d="M348 249C348 249.1 347.9 249.1 347.9 249.1C347.8 249.1 347.8 249 347.8 249C347.8 248.9 347.9 248.9 347.9 248.9C348 248.9 348 248.9 348 249Z" fill="#FFFAEF"/>
<path d="M329.5 218C329.5 218.1 329.4 218.1 329.4 218.1C329.3 218.1 329.3 218 329.3 218C329.3 217.9 329.4 217.9 329.4 217.9C329.5 217.9 329.5 217.9 329.5 218Z" fill="#FFFAEF"/>
<path d="M276.6 368C276.6 368.1 276.5 368.1 276.5 368.1C276.4 368.1 276.4 368 276.4 368C276.4 367.9 276.5 367.9 276.5 367.9C276.5 367.9 276.6 367.9 276.6 368Z" fill="#FFFAEF"/>
<path d="M291.2 341C291.2 341.1 291.1 341.1 291.1 341.1C291 341.1 291 341 291 341C291 340.9 291.1 340.9 291.1 340.9C291.2 340.9 291.2 341 291.2 341Z" fill="#FFFAEF"/>
<path d="M338.1 373.3C338.1 373.4 338 373.4 338 373.4C337.9 373.4 337.9 373.3 337.9 373.3C337.9 373.2 338 373.2 338 373.2C338 373.2 338.1 373.2 338.1 373.3Z" fill="#FFFAEF"/>
<path d="M325.6 359.2C325.6 359.3 325.5 359.3 325.5 359.3C325.4 359.3 325.4 359.2 325.4 359.2C325.4 359.1 325.5 359.1 325.5 359.1C325.5 359.1 325.6 359.1 325.6 359.2Z" fill="#FFFAEF"/>
<path d="M229.6 41.2999C229.6 41.3999 229.5 41.4 229.5 41.4C229.4 41.4 229.4 41.2999 229.4 41.2999L229.5 41.2C229.6 41.2 229.6 41.1999 229.6 41.2999Z" fill="#FFFAEF"/>
<path d="M203.3 11.2C203.3 11.3 203.2 11.3 203.2 11.3C203.1 11.3 203.1 11.2 203.1 11.2C203.1 11.1 203.2 11.1 203.2 11.1C203.2 11.1 203.3 11.1 203.3 11.2Z" fill="#FFFAEF"/>
<path d="M146.7 32.2C146.7 32.3 146.6 32.4 146.5 32.4C146.4 32.4 146.3 32.3 146.3 32.2C146.3 32.1 146.4 32 146.5 32C146.6 31.9 146.7 32.1 146.7 32.2Z" fill="#FFFAEF"/>
<path d="M119.7 39C119.7 39.1 119.6 39.2 119.5 39.2C119.4 39.2 119.3 39.1 119.3 39C119.3 38.9 119.4 38.8 119.5 38.8C119.6 38.7 119.7 38.8 119.7 39Z" fill="#FFFAEF"/>
<path d="M115.6 15.9C115.6 16 115.5 16.1 115.4 16.1C115.3 16.1 115.2 16 115.2 15.9C115.2 15.8 115.3 15.7 115.4 15.7C115.4 15.6 115.6 15.7 115.6 15.9Z" fill="#FFFAEF"/>
<path d="M73.4 8.89995C73.4 8.99995 73.3 9.09995 73.2 9.09995C73.1 9.09995 73 8.99995 73 8.89995C73 8.79995 73.1 8.69995 73.2 8.69995C73.3 8.69995 73.4 8.79995 73.4 8.89995Z" fill="#FFFAEF"/>
<path d="M264.2 51.4C264.2 51.5 264.1 51.5999 264 51.5999C263.9 51.5999 263.8 51.5 263.8 51.4C263.8 51.3 263.9 51.2 264 51.2C264.1 51.2 264.2 51.3 264.2 51.4Z" fill="#FFFAEF"/>
<path d="M282.1 108.6C282.1 108.7 282 108.8 281.9 108.8C281.8 108.8 281.7 108.7 281.7 108.6C281.7 108.5 281.8 108.4 281.9 108.4C282 108.4 282.1 108.5 282.1 108.6Z" fill="#FFFAEF"/>
<path d="M268.4 135.6C268.4 135.7 268.3 135.8 268.2 135.8C268.1 135.8 268 135.7 268 135.6C268 135.5 268.1 135.4 268.2 135.4C268.3 135.3 268.4 135.4 268.4 135.6Z" fill="#FFFAEF"/>
<path d="M203.6 125.3C203.6 125.4 203.5 125.5 203.4 125.5C203.3 125.5 203.2 125.4 203.2 125.3C203.2 125.2 203.3 125.1 203.4 125.1C203.5 125.1 203.6 125.2 203.6 125.3Z" fill="#FFFAEF"/>
<path d="M250.1 235.1C250.1 235.2 250 235.3 249.9 235.3C249.8 235.3 249.7 235.2 249.7 235.1C249.7 235 249.8 234.9 249.9 234.9C250 234.9 250.1 235 250.1 235.1Z" fill="#FFFAEF"/>
<path d="M253.6 218.2C253.6 218.3 253.5 218.4 253.4 218.4C253.3 218.4 253.2 218.3 253.2 218.2C253.2 218.1 253.3 218 253.4 218C253.5 218 253.6 218.1 253.6 218.2Z" fill="#FFFAEF"/>
<path d="M255.9 199C255.9 199.1 255.8 199.2 255.7 199.2C255.6 199.2 255.5 199.1 255.5 199C255.5 198.9 255.6 198.8 255.7 198.8C255.8 198.7 255.9 198.9 255.9 199Z" fill="#FFFAEF"/>
<path d="M282.3 219.5C282.3 219.6 282.2 219.7 282.1 219.7C282 219.7 281.9 219.6 281.9 219.5C281.9 219.4 282 219.3 282.1 219.3C282.2 219.3 282.3 219.4 282.3 219.5Z" fill="#FFFAEF"/>
<path d="M282.1 246.8C282.1 246.9 282 247 281.9 247C281.8 247 281.7 246.9 281.7 246.8C281.7 246.7 281.8 246.6 281.9 246.6C282 246.6 282.1 246.7 282.1 246.8Z" fill="#FFFAEF"/>
<path d="M318.1 221C318.1 221.1 318 221.2 317.9 221.2C317.8 221.2 317.7 221.1 317.7 221C317.7 220.9 317.8 220.8 317.9 220.8C318 220.8 318.1 220.8 318.1 221Z" fill="#FFFAEF"/>
<path d="M340.3 196.2C340.3 196.3 340.2 196.4 340.1 196.4C340 196.4 339.9 196.3 339.9 196.2C339.9 196.1 340 196 340.1 196C340.2 196 340.3 196 340.3 196.2Z" fill="#FFFAEF"/>
<path d="M339 129.6C339 129.7 338.9 129.8 338.8 129.8C338.7 129.8 338.6 129.7 338.6 129.6C338.6 129.5 338.7 129.4 338.8 129.4C338.9 129.4 339 129.5 339 129.6Z" fill="#FFFAEF"/>
<path d="M344.8 26.6C344.8 26.7 344.7 26.8 344.6 26.8C344.5 26.8 344.4 26.7 344.4 26.6C344.4 26.5 344.5 26.4 344.6 26.4C344.7 26.4 344.8 26.5 344.8 26.6Z" fill="#FFFAEF"/>
<path d="M333.7 38.2C333.7 38.3 333.6 38.4 333.5 38.4C333.4 38.4 333.3 38.3 333.3 38.2C333.3 38.1 333.4 38 333.5 38C333.6 38 333.7 38.1 333.7 38.2Z" fill="#FFFAEF"/>
<path d="M321.2 16.8C321.2 16.9 321.1 17 321 17C320.9 17 320.8 16.9 320.8 16.8C320.8 16.7 320.9 16.6 321 16.6C321.1 16.5 321.2 16.6 321.2 16.8Z" fill="#FFFAEF"/>
<path d="M308.6 31.9C308.6 32 308.5 32.0999 308.4 32.0999C308.3 32.0999 308.2 32 308.2 31.9C308.2 31.8 308.3 31.7 308.4 31.7C308.5 31.7 308.6 31.8 308.6 31.9Z" fill="#FFFAEF"/>
<path d="M306.5 44.2C306.5 44.3 306.4 44.4 306.3 44.4C306.2 44.4 306.1 44.3 306.1 44.2C306.1 44.1 306.2 44 306.3 44C306.4 44 306.5 44.1 306.5 44.2Z" fill="#FFFAEF"/>
<path d="M317.5 26.9C317.5 27 317.4 27.1 317.3 27.1C317.2 27.1 317.1 27 317.1 26.9C317.1 26.8 317.2 26.7 317.3 26.7C317.4 26.6 317.5 26.7 317.5 26.9Z" fill="#FFFAEF"/>
<path d="M308.3 7.59995C308.3 7.69995 308.2 7.79995 308.1 7.79995C308 7.79995 307.9 7.69995 307.9 7.59995C307.9 7.49995 308 7.39995 308.1 7.39995C308.2 7.29995 308.3 7.39995 308.3 7.59995Z" fill="#FFFAEF"/>
<path d="M311.5 65.0999C311.5 65.1999 311.4 65.3 311.3 65.3C311.2 65.3 311.1 65.1999 311.1 65.0999C311.1 64.9999 311.2 64.8999 311.3 64.8999C311.4 64.7999 311.5 64.8999 311.5 65.0999Z" fill="#FFFAEF"/>
<path d="M303.9 78.9C303.9 79 303.8 79.1 303.7 79.1C303.6 79.1 303.5 79 303.5 78.9C303.5 78.8 303.6 78.7 303.7 78.7C303.7 78.7 303.9 78.8 303.9 78.9Z" fill="#FFFAEF"/>
<path d="M291.2 87.5C291.2 87.6 291.1 87.7 291 87.7C290.9 87.7 290.8 87.6 290.8 87.5C290.8 87.4 290.9 87.3 291 87.3C291.1 87.3 291.2 87.4 291.2 87.5Z" fill="#FFFAEF"/>
<path d="M322.5 90C322.5 90.1 322.4 90.2 322.3 90.2C322.2 90.2 322.1 90.1 322.1 90C322.1 89.9 322.2 89.8 322.3 89.8C322.4 89.8 322.5 89.9 322.5 90Z" fill="#FFFAEF"/>
<path d="M338.7 61.4C338.7 61.5 338.6 61.5999 338.5 61.5999C338.4 61.5999 338.3 61.5 338.3 61.4C338.3 61.3 338.4 61.2 338.5 61.2C338.6 61.2 338.7 61.3 338.7 61.4Z" fill="#FFFAEF"/>
<path d="M351.3 55.4C351.3 55.5 351.2 55.5999 351.1 55.5999C351 55.5999 350.9 55.5 350.9 55.4C350.9 55.3 351 55.2 351.1 55.2C351.2 55.2 351.3 55.3 351.3 55.4Z" fill="#FFFAEF"/>
<path d="M356 244.9C356 245 355.9 245.1 355.8 245.1C355.7 245.1 355.6 245 355.6 244.9C355.6 244.8 355.7 244.7 355.8 244.7C355.9 244.7 356 244.8 356 244.9Z" fill="#FFFAEF"/>
<path d="M347.9 231.4C347.9 231.5 347.8 231.6 347.7 231.6C347.6 231.6 347.5 231.5 347.5 231.4C347.5 231.3 347.6 231.2 347.7 231.2C347.8 231.1 347.9 231.3 347.9 231.4Z" fill="#FFFAEF"/>
<path d="M330 183.1C330 183.2 329.9 183.3 329.8 183.3C329.7 183.3 329.6 183.2 329.6 183.1C329.6 183 329.7 182.9 329.8 182.9C329.9 182.9 330 183 330 183.1Z" fill="#FFFAEF"/>
<path d="M321.5 265.5C321.5 265.6 321.4 265.7 321.3 265.7C321.2 265.7 321.1 265.6 321.1 265.5C321.1 265.4 321.2 265.3 321.3 265.3C321.4 265.2 321.5 265.3 321.5 265.5Z" fill="#FFFAEF"/>
<path d="M345.1 254.8C345.1 254.9 345 255 344.9 255C344.8 255 344.7 254.9 344.7 254.8C344.7 254.7 344.8 254.6 344.9 254.6C345 254.5 345.1 254.6 345.1 254.8Z" fill="#FFFAEF"/>
<path d="M342.4 279.9C342.4 280 342.3 280.1 342.2 280.1C342.1 280.1 342 280 342 279.9C342 279.8 342.1 279.7 342.2 279.7C342.3 279.7 342.4 279.8 342.4 279.9Z" fill="#FFFAEF"/>
<path d="M340.5 318.7C340.5 318.8 340.4 318.9 340.3 318.9C340.2 318.9 340.1 318.8 340.1 318.7C340.1 318.6 340.2 318.5 340.3 318.5C340.4 318.5 340.5 318.5 340.5 318.7Z" fill="#FFFAEF"/>
<path d="M348.8 304.8C348.8 304.9 348.7 305 348.6 305C348.5 305 348.4 304.9 348.4 304.8C348.4 304.7 348.5 304.6 348.6 304.6C348.6 304.6 348.8 304.7 348.8 304.8Z" fill="#FFFAEF"/>
<path d="M295.1 297.9C295.1 298 295 298.1 294.9 298.1C294.8 298.1 294.7 298 294.7 297.9C294.7 297.8 294.8 297.7 294.9 297.7C295 297.6 295.1 297.7 295.1 297.9Z" fill="#FFFAEF"/>
<path d="M307 307.6C307 307.7 306.9 307.8 306.8 307.8C306.7 307.8 306.6 307.7 306.6 307.6C306.6 307.5 306.7 307.4 306.8 307.4C306.9 307.4 307 307.5 307 307.6Z" fill="#FFFAEF"/>
<path d="M298.9 307.4C298.9 307.5 298.8 307.6 298.7 307.6C298.6 307.6 298.5 307.5 298.5 307.4C298.5 307.3 298.6 307.2 298.7 307.2C298.8 307.2 298.9 307.3 298.9 307.4Z" fill="#FFFAEF"/>
<path d="M309.2 323.6C309.2 323.7 309.1 323.8 309 323.8C308.9 323.8 308.8 323.7 308.8 323.6C308.8 323.5 308.9 323.4 309 323.4C309.1 323.4 309.2 323.5 309.2 323.6Z" fill="#FFFAEF"/>
<path d="M345.3 365.3C345.3 365.4 345.2 365.5 345.1 365.5C345 365.5 344.9 365.4 344.9 365.3C344.9 365.2 345 365.1 345.1 365.1C345.2 365.1 345.3 365.2 345.3 365.3Z" fill="#FFFAEF"/>
<path d="M347.9 354.2C347.9 354.3 347.8 354.4 347.7 354.4C347.6 354.4 347.5 354.3 347.5 354.2C347.5 354.1 347.6 354 347.7 354C347.8 354 347.9 354.1 347.9 354.2Z" fill="#FFFAEF"/>
<path d="M295.9 357.9C295.9 358 295.8 358.1 295.7 358.1C295.6 358.1 295.5 358 295.5 357.9C295.5 357.8 295.6 357.7 295.7 357.7C295.8 357.7 295.9 357.8 295.9 357.9Z" fill="#FFFAEF"/>
<path d="M328.6 314.3C328.6 314.4 328.5 314.5 328.4 314.5C328.3 314.5 328.2 314.4 328.2 314.3C328.2 314.2 328.3 314.1 328.4 314.1C328.5 314 328.6 314.2 328.6 314.3Z" fill="#FFFAEF"/>
<path d="M345.3 300.1C345.3 300.2 345.2 300.3 345.1 300.3C345 300.3 344.9 300.2 344.9 300.1C344.9 300 345 299.9 345.1 299.9C345.2 299.8 345.3 299.9 345.3 300.1Z" fill="#FFFAEF"/>
<path d="M308.9 207.3C308.9 207.4 308.8 207.5 308.7 207.5C308.6 207.5 308.5 207.4 308.5 207.3C308.5 207.2 308.6 207.1 308.7 207.1C308.8 207.1 308.9 207.2 308.9 207.3Z" fill="#FFFAEF"/>
<path d="M344.8 100.8C344.8 100.9 344.7 101 344.6 101C344.5 101 344.4 100.9 344.4 100.8C344.4 100.7 344.5 100.6 344.6 100.6C344.7 100.6 344.8 100.7 344.8 100.8Z" fill="#FFFAEF"/>
<path d="M355.5 75.3C355.5 75.4 355.4 75.5 355.3 75.5C355.2 75.5 355.1 75.4 355.1 75.3C355.1 75.2 355.2 75.1 355.3 75.1C355.4 75 355.5 75.1 355.5 75.3Z" fill="#FFFAEF"/>
<path d="M355.7 91.3C355.7 91.4 355.6 91.5 355.5 91.5C355.4 91.5 355.3 91.4 355.3 91.3C355.3 91.2 355.4 91.1 355.5 91.1C355.6 91.1 355.7 91.2 355.7 91.3Z" fill="#FFFAEF"/>
<path d="M281.8 172.1C281.8 172.2 281.7 172.3 281.6 172.3C281.5 172.3 281.4 172.2 281.4 172.1C281.4 172 281.5 171.9 281.6 171.9C281.7 171.9 281.8 172 281.8 172.1Z" fill="#FFFAEF"/>
<path d="M271.8 179.1C271.8 179.2 271.7 179.3 271.6 179.3C271.5 179.3 271.4 179.2 271.4 179.1C271.4 179 271.5 178.9 271.6 178.9C271.6 178.9 271.8 179 271.8 179.1Z" fill="#FFFAEF"/>
<path d="M282.3 294.4C282.3 294.5 282.2 294.6 282.1 294.6C282 294.6 281.9 294.5 281.9 294.4C281.9 294.3 282 294.2 282.1 294.2C282.2 294.2 282.3 294.3 282.3 294.4Z" fill="#FFFAEF"/>
<path d="M282.3 280.4C282.3 280.5 282.2 280.6 282.1 280.6C282 280.6 281.9 280.5 281.9 280.4C281.9 280.3 282 280.2 282.1 280.2C282.2 280.2 282.3 280.3 282.3 280.4Z" fill="#FFFAEF"/>
<path d="M259.8 276.1C259.8 276.2 259.7 276.3 259.6 276.3C259.5 276.3 259.4 276.2 259.4 276.1C259.4 276 259.5 275.9 259.6 275.9C259.7 275.8 259.8 275.9 259.8 276.1Z" fill="#FFFAEF"/>
<path d="M258.7 314.8C258.7 314.9 258.6 315 258.5 315C258.4 315 258.3 314.9 258.3 314.8C258.3 314.7 258.4 314.6 258.5 314.6C258.6 314.5 258.7 314.6 258.7 314.8Z" fill="#FFFAEF"/>
<path d="M279.6 318.9C279.6 319 279.5 319.1 279.4 319.1C279.3 319.1 279.2 319 279.2 318.9C279.2 318.8 279.3 318.7 279.4 318.7C279.5 318.7 279.6 318.8 279.6 318.9Z" fill="#FFFAEF"/>
<path d="M279.9 336.2C279.9 336.3 279.8 336.4 279.7 336.4C279.6 336.4 279.5 336.3 279.5 336.2C279.5 336.1 279.6 336 279.7 336C279.8 336 279.9 336.1 279.9 336.2Z" fill="#FFFAEF"/>
<path d="M272 344.5C272 344.6 271.9 344.7 271.8 344.7C271.7 344.7 271.6 344.6 271.6 344.5C271.6 344.4 271.7 344.3 271.8 344.3C271.9 344.3 272 344.4 272 344.5Z" fill="#FFFAEF"/>
<path d="M251.4 337.6C251.4 337.7 251.3 337.8 251.2 337.8C251.1 337.8 251 337.7 251 337.6C251 337.5 251.1 337.4 251.2 337.4C251.3 337.3 251.4 337.4 251.4 337.6Z" fill="#FFFAEF"/>
<path d="M177.1 347.2C177.1 347.3 177 347.4 176.9 347.4C176.8 347.4 176.7 347.3 176.7 347.2C176.7 347.1 176.8 347 176.9 347C177 347 177.1 347.1 177.1 347.2Z" fill="#FFFAEF"/>
<path d="M184.9 332C184.9 332.1 184.8 332.2 184.7 332.2C184.6 332.2 184.5 332.1 184.5 332C184.5 331.9 184.6 331.8 184.7 331.8C184.8 331.8 184.9 331.9 184.9 332Z" fill="#FFFAEF"/>
<path d="M161 338.5C161 338.6 160.9 338.7 160.8 338.7C160.7 338.7 160.6 338.6 160.6 338.5C160.6 338.4 160.7 338.3 160.8 338.3C160.9 338.2 161 338.3 161 338.5Z" fill="#FFFAEF"/>
<path d="M158.7 318.9C158.7 319 158.6 319.1 158.5 319.1C158.4 319.1 158.3 319 158.3 318.9C158.3 318.8 158.4 318.7 158.5 318.7C158.6 318.7 158.7 318.8 158.7 318.9Z" fill="#FFFAEF"/>
<path d="M124.8 322.5C124.8 322.6 124.7 322.7 124.6 322.7C124.5 322.7 124.4 322.6 124.4 322.5C124.4 322.4 124.5 322.3 124.6 322.3C124.7 322.3 124.8 322.4 124.8 322.5Z" fill="#FFFAEF"/>
<path d="M138.7 309.9C138.7 310 138.6 310.1 138.5 310.1C138.4 310.1 138.3 310 138.3 309.9C138.3 309.8 138.4 309.7 138.5 309.7C138.6 309.7 138.7 309.7 138.7 309.9Z" fill="#FFFAEF"/>
<path d="M138.9 317.4C138.9 317.5 138.8 317.6 138.7 317.6C138.6 317.6 138.5 317.5 138.5 317.4C138.5 317.3 138.6 317.2 138.7 317.2C138.8 317.1 138.9 317.2 138.9 317.4Z" fill="#FFFAEF"/>
<path d="M154.7 299.8C154.7 299.9 154.6 300 154.5 300C154.4 300 154.3 299.9 154.3 299.8C154.3 299.7 154.4 299.6 154.5 299.6C154.6 299.6 154.7 299.7 154.7 299.8Z" fill="#FFFAEF"/>
<path d="M71.2999 273.5C71.2999 273.6 71.1999 273.7 71.0999 273.7C70.9999 273.7 70.8999 273.6 70.8999 273.5C70.8999 273.4 70.9999 273.3 71.0999 273.3C71.1999 273.3 71.2999 273.4 71.2999 273.5Z" fill="#FFFAEF"/>
<path d="M63.9 284.6C63.9 284.7 63.8 284.8 63.7 284.8C63.6 284.8 63.5 284.7 63.5 284.6C63.5 284.5 63.6 284.4 63.7 284.4C63.8 284.4 63.9 284.4 63.9 284.6Z" fill="#FFFAEF"/>
<path d="M83.0001 290.8C83.0001 290.9 82.9001 291 82.8001 291C82.7001 291 82.6001 290.9 82.6001 290.8C82.6001 290.7 82.7001 290.6 82.8001 290.6C82.9001 290.6 83.0001 290.7 83.0001 290.8Z" fill="#FFFAEF"/>
<path d="M161 351.8C161 351.9 160.9 352 160.8 352C160.7 352 160.6 351.9 160.6 351.8C160.6 351.7 160.7 351.6 160.8 351.6C160.9 351.6 161 351.7 161 351.8Z" fill="#FFFAEF"/>
<path d="M172.3 336.9C172.3 337 172.2 337.1 172.1 337.1C172 337.1 171.9 337 171.9 336.9C171.9 336.8 172 336.7 172.1 336.7C172.2 336.7 172.3 336.8 172.3 336.9Z" fill="#FFFAEF"/>
<path d="M151 367.4C151 367.5 150.9 367.6 150.8 367.6C150.7 367.6 150.6 367.5 150.6 367.4C150.6 367.3 150.7 367.2 150.8 367.2C150.9 367.1 151 367.2 151 367.4Z" fill="#FFFAEF"/>
<path d="M184.2 360.2C184.2 360.3 184.1 360.4 184 360.4C183.9 360.4 183.8 360.3 183.8 360.2C183.8 360.1 183.9 360 184 360C184.1 360 184.2 360.1 184.2 360.2Z" fill="#FFFAEF"/>
<path d="M194.7 343.1C194.7 343.2 194.6 343.3 194.5 343.3C194.4 343.3 194.3 343.2 194.3 343.1C194.3 343 194.4 342.9 194.5 342.9C194.6 342.9 194.7 343 194.7 343.1Z" fill="#FFFAEF"/>
<path d="M204.5 344.1C204.5 344.2 204.4 344.3 204.3 344.3C204.2 344.3 204.1 344.2 204.1 344.1C204.1 344 204.2 343.9 204.3 343.9C204.4 343.9 204.5 343.9 204.5 344.1Z" fill="#FFFAEF"/>
<path d="M230.9 221C230.9 221.1 230.8 221.2 230.7 221.2C230.6 221.2 230.5 221.1 230.5 221C230.5 220.9 230.6 220.8 230.7 220.8C230.8 220.7 230.9 220.8 230.9 221Z" fill="#FFFAEF"/>
<path d="M264.9 255.6C264.9 255.7 264.8 255.8 264.7 255.8C264.6 255.8 264.5 255.7 264.5 255.6C264.5 255.5 264.6 255.4 264.7 255.4C264.8 255.4 264.9 255.5 264.9 255.6Z" fill="#FFFAEF"/>
<path d="M261.8 178.9C261.8 179 261.7 179.1 261.6 179.1C261.5 179.1 261.4 179 261.4 178.9C261.4 178.8 261.5 178.7 261.6 178.7C261.7 178.7 261.8 178.8 261.8 178.9Z" fill="#FFFAEF"/>
<path d="M281.6 185.5C281.6 185.6 281.5 185.7 281.4 185.7C281.3 185.7 281.2 185.6 281.2 185.5C281.2 185.4 281.3 185.3 281.4 185.3C281.5 185.2 281.6 185.4 281.6 185.5Z" fill="#FFFAEF"/>
<path d="M274.5 265.2C274.5 265.3 274.4 265.4 274.3 265.4C274.2 265.4 274.1 265.3 274.1 265.2C274.1 265.1 274.2 265 274.3 265C274.4 265 274.5 265.1 274.5 265.2Z" fill="#FFFAEF"/>
<path d="M249.7 274.2C249.7 274.3 249.6 274.4 249.5 274.4C249.4 274.4 249.3 274.3 249.3 274.2C249.3 274.1 249.4 274 249.5 274C249.6 274 249.7 274.1 249.7 274.2Z" fill="#FFFAEF"/>
<path d="M180.4 227.8C180.4 227.9 180.3 228 180.2 228C180.1 228 180 227.9 180 227.8C180 227.7 180.1 227.6 180.2 227.6C180.3 227.6 180.4 227.7 180.4 227.8Z" fill="#FFFAEF"/>
<path d="M174.4 221C174.4 221.1 174.3 221.2 174.2 221.2C174.1 221.2 174 221.1 174 221C174 220.9 174.1 220.8 174.2 220.8C174.3 220.8 174.4 220.8 174.4 221Z" fill="#FFFAEF"/>
<path d="M180.2 193.3C180.2 193.4 180.1 193.5 180 193.5C179.9 193.5 179.8 193.4 179.8 193.3C179.8 193.2 179.9 193.1 180 193.1C180.1 193.1 180.2 193.2 180.2 193.3Z" fill="#FFFAEF"/>
<path d="M204.1 210.3C204.1 210.4 204 210.5 203.9 210.5C203.8 210.5 203.7 210.4 203.7 210.3C203.7 210.2 203.8 210.1 203.9 210.1C204 210.1 204.1 210.2 204.1 210.3Z" fill="#FFFAEF"/>
<path d="M190.1 229.3C190.1 229.4 190 229.5 189.9 229.5C189.8 229.5 189.7 229.4 189.7 229.3C189.7 229.2 189.8 229.1 189.9 229.1C190 229.1 190.1 229.2 190.1 229.3Z" fill="#FFFAEF"/>
<path d="M19.1998 214.3C19.1998 214.4 19.0998 214.5 18.9998 214.5C18.8998 214.5 18.7998 214.4 18.7998 214.3C18.7998 214.2 18.8998 214.1 18.9998 214.1C18.9998 214 19.1998 214.1 19.1998 214.3Z" fill="#FFFAEF"/>
<path d="M2.99981 218.2C3.11026 218.2 3.19981 218.11 3.19981 218C3.19981 217.89 3.11026 217.8 2.99981 217.8C2.88935 217.8 2.7998 217.89 2.7998 218C2.7998 218.11 2.88935 218.2 2.99981 218.2Z" fill="#FFFAEF"/>
<path d="M7.0001 241.3C7.0001 241.4 6.9001 241.5 6.8001 241.5C6.7001 241.5 6.6001 241.4 6.6001 241.3C6.6001 241.2 6.7001 241.1 6.8001 241.1C6.9001 241.1 7.0001 241.2 7.0001 241.3Z" fill="#FFFAEF"/>
<path d="M187.5 136.8C187.5 136.9 187.4 137 187.3 137C187.2 137 187.1 136.9 187.1 136.8C187.1 136.7 187.2 136.6 187.3 136.6C187.4 136.6 187.5 136.7 187.5 136.8Z" fill="#FFFAEF"/>
<path d="M163.6 17C163.6 17.1 163.5 17.2001 163.4 17.2001C163.3 17.2001 163.2 17.1 163.2 17C163.2 16.9 163.3 16.8 163.4 16.8C163.5 16.8 163.6 16.9 163.6 17Z" fill="#FFFAEF"/>
<path d="M211.1 16.1C211.1 16.2 211 16.3 210.9 16.3C210.8 16.3 210.7 16.2 210.7 16.1C210.7 16 210.8 15.9 210.9 15.9C211 15.9 211.1 16 211.1 16.1Z" fill="#FFFAEF"/>
<path d="M203.9 42.4C203.9 42.5 203.8 42.5999 203.7 42.5999C203.6 42.5999 203.5 42.5 203.5 42.4C203.5 42.3 203.6 42.2 203.7 42.2C203.8 42.2 203.9 42.3 203.9 42.4Z" fill="#FFFAEF"/>
<path d="M274.7 42.1C274.7 42.2 274.6 42.3 274.5 42.3C274.4 42.3 274.3 42.2 274.3 42.1C274.3 42 274.4 41.9 274.5 41.9C274.6 41.9 274.7 42 274.7 42.1Z" fill="#FFFAEF"/>
<path d="M195.3 166.7C195.3 166.8 195.2 166.9 195.1 166.9C195 166.9 194.9 166.8 194.9 166.7C194.9 166.6 195 166.5 195.1 166.5C195.2 166.4 195.3 166.5 195.3 166.7Z" fill="#FFFAEF"/>
<path d="M6.19981 150.1C6.19981 150.2 6.09981 150.3 5.99981 150.3C5.89981 150.3 5.7998 150.2 5.7998 150.1C5.7998 150 5.89981 149.9 5.99981 149.9C6.09981 149.8 6.19981 149.9 6.19981 150.1Z" fill="#FFFAEF"/>
<path d="M187.5 205.9C187.5 206 187.4 206.1 187.3 206.1C187.2 206.1 187.1 206 187.1 205.9C187.1 205.8 187.2 205.7 187.3 205.7C187.4 205.7 187.5 205.8 187.5 205.9Z" fill="#FFFAEF"/>
<path d="M127.6 228C127.6 228.1 127.5 228.2 127.4 228.2C127.3 228.2 127.2 228.1 127.2 228C127.2 227.9 127.3 227.8 127.4 227.8C127.5 227.8 127.6 227.9 127.6 228Z" fill="#FFFAEF"/>
<path d="M190.3 185.7C190.3 185.8 190.2 185.9 190.1 185.9C190 185.9 189.9 185.8 189.9 185.7C189.9 185.6 190 185.5 190.1 185.5C190.2 185.5 190.3 185.6 190.3 185.7Z" fill="#FFFAEF"/>
<path d="M101.5 275.8C101.5 275.9 101.4 276 101.3 276C101.2 276 101.1 275.9 101.1 275.8C101.1 275.7 101.2 275.6 101.3 275.6C101.4 275.6 101.5 275.7 101.5 275.8Z" fill="#FFFAEF"/>
<path d="M11.6002 69.4C11.6002 69.5 11.5002 69.6 11.4002 69.6C11.3002 69.6 11.2002 69.5 11.2002 69.4C11.2002 69.3 11.3002 69.2 11.4002 69.2C11.5002 69.2 11.6002 69.3 11.6002 69.4Z" fill="#FFFAEF"/>
<path d="M41.2999 88.9C41.2999 89 41.1999 89.1 41.0999 89.1C40.9999 89.1 40.8999 89 40.8999 88.9C40.8999 88.8 40.9999 88.7 41.0999 88.7C41.1999 88.7 41.2999 88.8 41.2999 88.9Z" fill="#FFFAEF"/>
<path d="M41.6002 76.3C41.6002 76.4 41.5002 76.5 41.4002 76.5C41.3002 76.5 41.2002 76.4 41.2002 76.3C41.2002 76.2 41.3002 76.1 41.4002 76.1C41.5002 76 41.6002 76.1 41.6002 76.3Z" fill="#FFFAEF"/>
<path d="M42.6998 40.9C42.6998 41 42.5998 41.0999 42.4998 41.0999C42.3998 41.0999 42.2998 41 42.2998 40.9C42.2998 40.8 42.3998 40.7 42.4998 40.7C42.4998 40.7 42.6998 40.8 42.6998 40.9Z" fill="#FFFAEF"/>
<path d="M24.9 8.89995C24.9 8.99995 24.8 9.09995 24.7 9.09995C24.6 9.09995 24.5 8.99995 24.5 8.89995C24.5 8.79995 24.6 8.69995 24.7 8.69995C24.8 8.69995 24.9 8.79995 24.9 8.89995Z" fill="#FFFAEF"/>
<path d="M37.6998 6.79998C37.6998 6.89998 37.5998 6.99998 37.4998 6.99998C37.3998 6.99998 37.2998 6.89998 37.2998 6.79998C37.2998 6.69998 37.3998 6.59998 37.4998 6.59998C37.5998 6.59998 37.6998 6.69998 37.6998 6.79998Z" fill="#FFFAEF"/>
<path d="M164.1 59.3C164.1 59.4 164 59.5 163.9 59.5C163.8 59.5 163.7 59.4 163.7 59.3C163.7 59.2 163.8 59.1 163.9 59.1C164 59.1 164.1 59.2 164.1 59.3Z" fill="#FFFAEF"/>
<path d="M169 46C169 46.1 168.9 46.2001 168.8 46.2001C168.7 46.2001 168.6 46.1 168.6 46C168.6 45.9 168.7 45.8 168.8 45.8C168.9 45.8 169 45.9 169 46Z" fill="#FFFAEF"/>
<path d="M156.4 47.4C156.4 47.5 156.3 47.6 156.2 47.6C156.1 47.6 156 47.5 156 47.4C156 47.3 156.1 47.2 156.2 47.2C156.3 47.1 156.4 47.3 156.4 47.4Z" fill="#FFFAEF"/>
<path d="M169.6 26.4C169.6 26.5 169.5 26.6 169.4 26.6C169.3 26.6 169.2 26.5 169.2 26.4C169.2 26.3 169.3 26.2 169.4 26.2C169.5 26.2 169.6 26.3 169.6 26.4Z" fill="#FFFAEF"/>
<path d="M113.1 5.30002C113.1 5.40002 113 5.50002 112.9 5.50002C112.8 5.50002 112.7 5.40002 112.7 5.30002C112.7 5.20002 112.8 5.10002 112.9 5.10002C113 5.00002 113.1 5.10002 113.1 5.30002Z" fill="#FFFAEF"/>
<path d="M40.4 246.8C40.6209 246.8 40.8 246.71 40.8 246.6C40.8 246.49 40.6209 246.4 40.4 246.4C40.1791 246.4 40 246.49 40 246.6C40 246.71 40.1791 246.8 40.4 246.8Z" fill="#FFFAEF"/>
<path d="M131.6 94.2C131.6 94.5 131.4 94.7 131.1 94.7C130.8 94.7 130.6 94.5 130.6 94.2C130.6 93.9 130.8 93.7 131.1 93.7C131.4 93.6 131.6 93.9 131.6 94.2Z" fill="#FFFAEF"/>
<path d="M152 113.6C152 113.9 151.8 114.1 151.5 114.1C151.2 114.1 151 113.9 151 113.6C151 113.3 151.2 113.1 151.5 113.1C151.8 113 152 113.3 152 113.6Z" fill="#FFFAEF"/>
<path d="M142.7 189.7C142.7 190 142.5 190.2 142.2 190.2C141.9 190.2 141.7 190 141.7 189.7C141.7 189.4 141.9 189.2 142.2 189.2C142.4 189.2 142.7 189.4 142.7 189.7Z" fill="#FFFAEF"/>
<path d="M50.5 270.6C50.5 270.9 50.3 271.1 50 271.1C49.7 271.1 49.5 270.9 49.5 270.6C49.5 270.3 49.7 270.1 50 270.1C50.2 270 50.5 270.3 50.5 270.6Z" fill="#FFFAEF"/>
<path d="M81.2998 307C81.2998 307.3 81.0998 307.5 80.7998 307.5C80.4998 307.5 80.2998 307.3 80.2998 307C80.2998 306.7 80.4998 306.5 80.7998 306.5C81.0998 306.5 81.2998 306.7 81.2998 307Z" fill="#FFFAEF"/>
<path d="M271.5 231.9C271.5 232.2 271.3 232.4 271 232.4C270.7 232.4 270.5 232.2 270.5 231.9C270.5 231.6 270.7 231.4 271 231.4C271.3 231.4 271.5 231.6 271.5 231.9Z" fill="#FFFAEF"/>
<path d="M259.5 142.6C259.5 142.9 259.3 143.1 259 143.1C258.7 143.1 258.5 142.9 258.5 142.6C258.5 142.3 258.7 142.1 259 142.1C259.3 142.1 259.5 142.3 259.5 142.6Z" fill="#FFFAEF"/>
<path d="M229.1 109.1C229.1 109.4 228.9 109.6 228.6 109.6C228.3 109.6 228.1 109.4 228.1 109.1C228.1 108.8 228.3 108.6 228.6 108.6C228.9 108.6 229.1 108.9 229.1 109.1Z" fill="#FFFAEF"/>
<path d="M236.7 81.7C236.7 82 236.5 82.2 236.2 82.2C235.9 82.2 235.7 82 235.7 81.7C235.7 81.4 235.9 81.2 236.2 81.2C236.5 81.2 236.7 81.4 236.7 81.7Z" fill="#FFFAEF"/>
<path d="M328.3 73.9C328.3 74.2 328.1 74.4 327.8 74.4C327.5 74.4 327.3 74.2 327.3 73.9C327.3 73.6 327.5 73.4 327.8 73.4C328.1 73.4 328.3 73.6 328.3 73.9Z" fill="#FFFAEF"/>
<path d="M294.3 145.5C294.3 145.8 294.1 146 293.8 146C293.5 146 293.3 145.8 293.3 145.5C293.3 145.2 293.5 145 293.8 145C294.1 144.9 294.3 145.2 294.3 145.5Z" fill="#FFFAEF"/>
<path d="M294.9 125.7C294.9 126 294.7 126.2 294.4 126.2C294.1 126.2 293.9 126 293.9 125.7C293.9 125.4 294.1 125.2 294.4 125.2C294.6 125.2 294.9 125.4 294.9 125.7Z" fill="#FFFAEF"/>
<path d="M314.5 188.4C314.5 188.7 314.3 188.9 314 188.9C313.7 188.9 313.5 188.7 313.5 188.4C313.5 188.1 313.7 187.9 314 187.9C314.2 187.8 314.5 188.1 314.5 188.4Z" fill="#FFFAEF"/>
<path d="M293.8 173.8C293.8 174.1 293.6 174.3 293.3 174.3C293 174.3 292.8 174.1 292.8 173.8C292.8 173.5 293 173.3 293.3 173.3C293.6 173.2 293.8 173.5 293.8 173.8Z" fill="#FFFAEF"/>
<path d="M295.4 207.8C295.4 208.1 295.2 208.3 294.9 208.3C294.6 208.3 294.4 208.1 294.4 207.8C294.4 207.5 294.6 207.3 294.9 207.3C295.2 207.3 295.4 207.5 295.4 207.8Z" fill="#FFFAEF"/>
<path d="M318.4 38.2C318.4 38.5 318.2 38.7 317.9 38.7C317.6 38.7 317.4 38.5 317.4 38.2C317.4 37.9 317.6 37.7 317.9 37.7C318.1 37.6 318.4 37.9 318.4 38.2Z" fill="#FFFAEF"/>
<path d="M339.8 16.8C339.8 17.1 339.6 17.3 339.3 17.3C339 17.3 338.8 17.1 338.8 16.8C338.8 16.5 339 16.3 339.3 16.3C339.6 16.2 339.8 16.5 339.8 16.8Z" fill="#FFFAEF"/>
<path d="M289.1 8.69995C289.1 8.99995 288.9 9.19995 288.6 9.19995C288.3 9.19995 288.1 8.99995 288.1 8.69995C288.1 8.39995 288.3 8.19995 288.6 8.19995C288.9 8.19995 289.1 8.39995 289.1 8.69995Z" fill="#FFFAEF"/>
<path d="M329.4 236.4C329.4 236.7 329.2 236.9 328.9 236.9C328.6 236.9 328.4 236.7 328.4 236.4C328.4 236.1 328.6 235.9 328.9 235.9C329.2 235.9 329.4 236.1 329.4 236.4Z" fill="#FFFAEF"/>
<path d="M313.9 259.6C313.9 259.9 313.7 260.1 313.4 260.1C313.1 260.1 312.9 259.9 312.9 259.6C312.9 259.3 313.1 259.1 313.4 259.1C313.7 259 313.9 259.3 313.9 259.6Z" fill="#FFFAEF"/>
<path d="M307.3 234.9C307.3 235.2 307.1 235.4 306.8 235.4C306.5 235.4 306.3 235.2 306.3 234.9C306.3 234.6 306.5 234.4 306.8 234.4C307.1 234.4 307.3 234.6 307.3 234.9Z" fill="#FFFAEF"/>
<path d="M307.8 283C307.8 283.3 307.6 283.5 307.3 283.5C307 283.5 306.8 283.3 306.8 283C306.8 282.7 307 282.5 307.3 282.5C307.6 282.5 307.8 282.7 307.8 283Z" fill="#FFFAEF"/>
<path d="M335.3 291.6C335.3 291.9 335.1 292.1 334.8 292.1C334.5 292.1 334.3 291.9 334.3 291.6C334.3 291.3 334.5 291.1 334.8 291.1C335.1 291.1 335.3 291.3 335.3 291.6Z" fill="#FFFAEF"/>
<path d="M201.2 78.4C201.2 78.7 201 78.9 200.7 78.9C200.4 78.9 200.2 78.7 200.2 78.4C200.2 78.1 200.4 77.9 200.7 77.9C200.9 77.8 201.2 78.1 201.2 78.4Z" fill="#FFFAEF"/>
<path d="M203.9 51.7C203.9 52 203.7 52.2 203.4 52.2C203.1 52.2 202.9 52 202.9 51.7C202.9 51.4 203.1 51.2 203.4 51.2C203.7 51.2 203.9 51.4 203.9 51.7Z" fill="#FFFAEF"/>
<path d="M272.2 31.9C272.2 32.2 272 32.4 271.7 32.4C271.4 32.4 271.2 32.2 271.2 31.9C271.2 31.6 271.4 31.4 271.7 31.4C272 31.4 272.2 31.6 272.2 31.9Z" fill="#FFFAEF"/>
<path d="M281.7 51C281.7 51.3 281.5 51.5 281.2 51.5C280.9 51.5 280.7 51.3 280.7 51C280.7 50.7 280.9 50.5 281.2 50.5C281.4 50.4 281.7 50.7 281.7 51Z" fill="#FFFAEF"/>
<path d="M32.5 38.7C32.5 39 32.3 39.2 32 39.2C31.7 39.2 31.5 39 31.5 38.7C31.5 38.4 31.7 38.2 32 38.2C32.2 38.2 32.5 38.4 32.5 38.7Z" fill="#FFFAEF"/>
<path d="M43.7002 28.5C43.7002 28.8 43.5002 29 43.2002 29C42.9002 29 42.7002 28.8 42.7002 28.5C42.7002 28.2 42.9002 28 43.2002 28C43.5002 27.9 43.7002 28.2 43.7002 28.5Z" fill="#FFFAEF"/>
<path d="M14.2998 259.6C14.2998 259.9 14.0998 260.1 13.7998 260.1C13.4998 260.1 13.2998 259.9 13.2998 259.6C13.2998 259.3 13.4998 259.1 13.7998 259.1C14.0998 259 14.2998 259.3 14.2998 259.6Z" fill="#FFFAEF"/>
<path d="M57.7002 9.59998C57.7002 9.89998 57.5002 10.1 57.2002 10.1C56.9002 10.1 56.7002 9.89998 56.7002 9.59998C56.7002 9.29998 56.9002 9.09998 57.2002 9.09998C57.5002 9.09998 57.7002 9.29998 57.7002 9.59998Z" fill="#FFFAEF"/>
<path d="M83.1001 4.30001C83.1001 4.60001 82.9001 4.80001 82.6001 4.80001C82.3001 4.80001 82.1001 4.60001 82.1001 4.30001C82.1001 4.00001 82.3001 3.80001 82.6001 3.80001C82.8001 3.70001 83.1001 4.00001 83.1001 4.30001Z" fill="#FFFAEF"/>
<path d="M100.3 13.1001C100.3 13.4001 100.1 13.6001 99.7998 13.6001C99.4998 13.6001 99.2998 13.4001 99.2998 13.1001C99.2998 12.8001 99.4998 12.6001 99.7998 12.6001C100.1 12.5001 100.3 12.8001 100.3 13.1001Z" fill="#FFFAEF"/>
<path d="M222.1 194.8C222.1 195.2 221.8 195.5 221.4 195.5C221 195.5 220.7 195.2 220.7 194.8C220.7 194.4 221 194.1 221.4 194.1C221.8 194.1 222.1 194.4 222.1 194.8Z" fill="#FFFAEF"/>
<path d="M109.4 194.8C109.4 195.2 109.1 195.5 108.7 195.5C108.3 195.5 108 195.2 108 194.8C108 194.4 108.3 194.1 108.7 194.1C109.1 194.1 109.4 194.4 109.4 194.8Z" fill="#FFFAEF"/>
<path d="M234.5 136.1C234.5 136.5 234.2 136.8 233.8 136.8C233.4 136.8 233.1 136.5 233.1 136.1C233.1 135.7 233.4 135.4 233.8 135.4C234.2 135.4 234.5 135.7 234.5 136.1Z" fill="#FFFAEF"/>
<path d="M236.4 299.1C236.4 299.5 236.1 299.8 235.7 299.8C235.3 299.8 235 299.5 235 299.1C235 298.7 235.3 298.4 235.7 298.4C236.1 298.4 236.4 298.7 236.4 299.1Z" fill="#FFFAEF"/>
<path d="M170.7 327.2C170.7 327.6 170.4 327.9 170 327.9C169.6 327.9 169.3 327.6 169.3 327.2C169.3 326.8 169.6 326.5 170 326.5C170.4 326.5 170.7 326.8 170.7 327.2Z" fill="#FFFAEF"/>
<path d="M171.5 360.9C171.5 361.3 171.2 361.6 170.8 361.6C170.4 361.6 170.1 361.3 170.1 360.9C170.1 360.5 170.4 360.2 170.8 360.2C171.1 360.2 171.5 360.5 171.5 360.9Z" fill="#FFFAEF"/>
<path d="M138.5 381C138.5 381.4 138.2 381.7 137.8 381.7C137.4 381.7 137.1 381.4 137.1 381C137.1 380.6 137.4 380.3 137.8 380.3C138.1 380.3 138.5 380.6 138.5 381Z" fill="#FFFAEF"/>
<path d="M185.4 260.8C185.4 261.2 185.1 261.5 184.7 261.5C184.3 261.5 184 261.2 184 260.8C184 260.4 184.3 260.1 184.7 260.1C185 260.1 185.4 260.4 185.4 260.8Z" fill="#FFFAEF"/>
<path d="M19.6002 199C19.6002 199.4 19.3002 199.7 18.9002 199.7C18.5002 199.7 18.2002 199.4 18.2002 199C18.2002 198.6 18.5002 198.3 18.9002 198.3C19.3002 198.3 19.6002 198.6 19.6002 199Z" fill="#FFFAEF"/>
<path d="M68.9 137.1C68.9 137.5 68.6 137.8 68.2 137.8C67.8 137.8 67.5 137.5 67.5 137.1C67.5 136.7 67.8 136.4 68.2 136.4C68.6 136.4 68.9 136.7 68.9 137.1Z" fill="#FFFAEF"/>
<path d="M1.7002 289.7C1.7002 290 1.5002 290.2 1.2002 290.2C0.900195 290.2 0.700195 290 0.700195 289.7C0.700195 289.4 0.900195 289.2 1.2002 289.2C1.5002 289.2 1.7002 289.4 1.7002 289.7Z" fill="#FFFAEF"/>
<path d="M30 22.9C30 23.2 29.8 23.4 29.5 23.4C29.2 23.4 29 23.2 29 22.9C29 22.6 29.2 22.4 29.5 22.4C29.7 22.4 30 22.6 30 22.9Z" fill="#FFFAEF"/>
<path d="M53.2002 67.4C53.2002 67.7 53.0002 67.9 52.7002 67.9C52.4002 67.9 52.2002 67.7 52.2002 67.4C52.2002 67.1 52.4002 66.9 52.7002 66.9C53.0002 66.8 53.2002 67.1 53.2002 67.4Z" fill="#FFFAEF"/>
<path d="M6.5 166.9C6.5 167.2 6.3 167.4 6 167.4C5.7 167.4 5.5 167.2 5.5 166.9C5.5 166.6 5.7 166.4 6 166.4C6.3 166.4 6.5 166.6 6.5 166.9Z" fill="#FFFAEF"/>
<path d="M235.2 289.2C235.2 289.5 235 289.7 234.7 289.7C234.4 289.7 234.2 289.5 234.2 289.2C234.2 288.9 234.4 288.7 234.7 288.7C235 288.6 235.2 288.9 235.2 289.2Z" fill="#FFFAEF"/>
<path d="M105.1 101.9C105.1 102.3 104.8 102.5 104.5 102.5C104.2 102.5 103.9 102.2 103.9 101.9C103.9 101.5 104.2 101.3 104.5 101.3C104.8 101.3 105.1 101.5 105.1 101.9Z" fill="#FFFAEF"/>
<path d="M92.7 59.9001C92.7 60.3001 92.4 60.5 92.1 60.5C91.7 60.5 91.5 60.2001 91.5 59.9001C91.5 59.5001 91.8 59.3 92.1 59.3C92.4 59.3 92.7 59.6001 92.7 59.9001Z" fill="#FFFAEF"/>
<path d="M170 113C170 113.4 169.7 113.6 169.4 113.6C169.1 113.6 168.8 113.3 168.8 113C168.8 112.6 169.1 112.4 169.4 112.4C169.7 112.4 170 112.7 170 113Z" fill="#FFFAEF"/>
<path d="M159.8 188.4C159.8 188.8 159.5 189 159.2 189C158.8 189 158.6 188.7 158.6 188.4C158.6 188 158.9 187.8 159.2 187.8C159.5 187.7 159.8 188 159.8 188.4Z" fill="#FFFAEF"/>
<path d="M251.5 173.1C251.5 173.5 251.2 173.7 250.9 173.7C250.5 173.7 250.3 173.4 250.3 173.1C250.3 172.7 250.6 172.5 250.9 172.5C251.3 172.5 251.5 172.8 251.5 173.1Z" fill="#FFFAEF"/>
<path d="M212.2 283.9C212.2 284.3 211.9 284.5 211.6 284.5C211.2 284.5 211 284.2 211 283.9C211 283.5 211.3 283.3 211.6 283.3C211.9 283.3 212.2 283.6 212.2 283.9Z" fill="#FFFAEF"/>
<path d="M172.1 292.2C172.1 292.6 171.8 292.8 171.5 292.8C171.2 292.8 170.9 292.5 170.9 292.2C170.9 291.8 171.2 291.6 171.5 291.6C171.8 291.6 172.1 291.9 172.1 292.2Z" fill="#FFFAEF"/>
<path d="M237.3 265.9C237.3 266.3 237 266.5 236.7 266.5C236.3 266.5 236.1 266.2 236.1 265.9C236.1 265.5 236.4 265.3 236.7 265.3C237 265.2 237.3 265.5 237.3 265.9Z" fill="#FFFAEF"/>
<path d="M134 295.2C134 295.6 133.7 295.8 133.4 295.8C133 295.8 132.8 295.5 132.8 295.2C132.8 294.8 133.1 294.6 133.4 294.6C133.7 294.6 134 294.9 134 295.2Z" fill="#FFFAEF"/>
<path d="M135.1 331.3C135.1 331.7 134.8 331.9 134.5 331.9C134.1 331.9 133.9 331.6 133.9 331.3C133.9 330.9 134.2 330.7 134.5 330.7C134.8 330.7 135.1 331 135.1 331.3Z" fill="#FFFAEF"/>
<path d="M51.7 337.6C51.7 338 51.4 338.2 51.1 338.2C50.7 338.2 50.5 337.9 50.5 337.6C50.5 337.2 50.8 337 51.1 337C51.4 336.9 51.7 337.2 51.7 337.6Z" fill="#FFFAEF"/>
<path d="M42.4998 359.6C42.4998 360 42.1998 360.2 41.8998 360.2C41.5998 360.2 41.2998 359.9 41.2998 359.6C41.2998 359.2 41.5998 359 41.8998 359C42.1998 359 42.4998 359.2 42.4998 359.6Z" fill="#FFFAEF"/>
<path d="M42.3998 160.5C42.3998 161.2 41.7998 161.8 41.0998 161.8C40.3998 161.8 39.7998 161.2 39.7998 160.5C39.7998 159.8 40.3998 159.2 41.0998 159.2C41.7998 159.2 42.3998 159.8 42.3998 160.5Z" fill="#FFFAEF"/>
<path d="M20.3002 114.4C20.3002 115.1 19.7002 115.7 19.0002 115.7C18.3002 115.7 17.7002 115.1 17.7002 114.4C17.7002 113.7 18.3002 113.1 19.0002 113.1C19.7002 113 20.3002 113.6 20.3002 114.4Z" fill="#FFFAEF"/>
<path d="M27.2001 58.2C27.2001 58.9 26.6001 59.5 25.9001 59.5C25.2001 59.5 24.6001 58.9 24.6001 58.2C24.6001 57.5 25.2001 56.9 25.9001 56.9C26.6001 56.9 27.2001 57.5 27.2001 58.2Z" fill="#FFFAEF"/>
<path d="M125.9 143.9C126.618 143.9 127.2 143.318 127.2 142.6C127.2 141.882 126.618 141.3 125.9 141.3C125.182 141.3 124.6 141.882 124.6 142.6C124.6 143.318 125.182 143.9 125.9 143.9Z" fill="#FFFAEF"/>
<path d="M355.3 151.6C355.3 152.3 354.7 152.9 354 152.9C353.3 152.9 352.7 152.3 352.7 151.6C352.7 150.9 353.3 150.3 354 150.3C354.7 150.2 355.3 150.8 355.3 151.6Z" fill="#FFFAEF"/>
<path d="M317.3 315C317.3 315.7 316.7 316.3 316 316.3C315.3 316.3 314.7 315.7 314.7 315C314.7 314.3 315.3 313.7 316 313.7C316.8 313.7 317.3 314.3 317.3 315Z" fill="#FFFAEF"/>
<path d="M322.3 366.6C322.3 367.3 321.7 367.9 321 367.9C320.3 367.9 319.7 367.3 319.7 366.6C319.7 365.9 320.3 365.3 321 365.3C321.7 365.3 322.3 365.9 322.3 366.6Z" fill="#FFFAEF"/>
<path d="M174.1 70.9C174.1 71.6 173.5 72.2 172.8 72.2C172.1 72.2 171.5 71.6 171.5 70.9C171.5 70.2 172.1 69.6 172.8 69.6C173.5 69.6 174.1 70.2 174.1 70.9Z" fill="#FFFAEF"/>
<path d="M224 22.9C224.718 22.9 225.3 22.318 225.3 21.6C225.3 20.8821 224.718 20.3 224 20.3C223.282 20.3 222.7 20.8821 222.7 21.6C222.7 22.318 223.282 22.9 224 22.9Z" fill="#FFFAEF"/>
<path d="M210 90C210 90.7 209.4 91.3 208.7 91.3C208 91.3 207.4 90.7 207.4 90C207.4 89.3 208 88.7 208.7 88.7C209.4 88.7 210 89.3 210 90Z" fill="#FFFAEF"/>
<path d="M189.9 24C189.9 24.7 189.3 25.2999 188.6 25.2999C187.9 25.2999 187.3 24.7 187.3 24C187.3 23.3 187.9 22.7 188.6 22.7C189.3 22.7 189.9 23.3 189.9 24Z" fill="#FFFAEF"/>
<path d="M128.7 20.2C128.7 20.9 128.1 21.5 127.4 21.5C126.7 21.5 126.1 20.9 126.1 20.2C126.1 19.5 126.7 18.9 127.4 18.9C128.1 18.9 128.7 19.5 128.7 20.2Z" fill="#FFFAEF"/>
<path d="M244.5 187.1C244.5 187.8 243.9 188.4 243.2 188.4C242.5 188.4 241.9 187.8 241.9 187.1C241.9 186.4 242.5 185.8 243.2 185.8C243.9 185.7 244.5 186.3 244.5 187.1Z" fill="#FFFAEF"/>
<defs>
<radialGradient id="paint0_radial_254_429" cx="0" cy="0" r="1" gradientUnits="userSpaceOnUse" gradientTransform="translate(263.358 14.6865) scale(5.7547 5.7547)">
<stop stop-color="white"/>
<stop offset="0.0767177" stop-color="white" stop-opacity="0.9233"/>
<stop offset="1" stop-color="#272525" stop-opacity="0"/>
</radialGradient>
<radialGradient id="paint1_radial_254_429" cx="0" cy="0" r="1" gradientUnits="userSpaceOnUse" gradientTransform="translate(264.712 81.7876) scale(5.7547 5.7547)">
<stop stop-color="white"/>
<stop offset="0.0767177" stop-color="white" stop-opacity="0.9233"/>
<stop offset="1" stop-color="#272525" stop-opacity="0"/>
</radialGradient>
<radialGradient id="paint2_radial_254_429" cx="0" cy="0" r="1" gradientUnits="userSpaceOnUse" gradientTransform="translate(211.523 240.557) scale(2.88719 2.8872)">
<stop stop-color="white"/>
<stop offset="0.0767177" stop-color="white" stop-opacity="0.9233"/>
<stop offset="1" stop-color="#272525" stop-opacity="0"/>
</radialGradient>
<radialGradient id="paint3_radial_254_429" cx="0" cy="0" r="1" gradientUnits="userSpaceOnUse" gradientTransform="translate(163.61 151.615) scale(2.8872)">
<stop stop-color="white"/>
<stop offset="0.0767177" stop-color="white" stop-opacity="0.9233"/>
<stop offset="1" stop-color="#272525" stop-opacity="0"/>
</radialGradient>
<radialGradient id="paint4_radial_254_429" cx="0" cy="0" r="1" gradientUnits="userSpaceOnUse" gradientTransform="translate(72.7059 210.143) scale(2.8872 2.8872)">
<stop stop-color="white"/>
<stop offset="0.0767177" stop-color="white" stop-opacity="0.9233"/>
<stop offset="1" stop-color="#272525" stop-opacity="0"/>
</radialGradient>
<radialGradient id="paint5_radial_254_429" cx="0" cy="0" r="1" gradientUnits="userSpaceOnUse" gradientTransform="translate(78.8241 283.334) scale(2.8872 2.88721)">
<stop stop-color="white"/>
<stop offset="0.0767177" stop-color="white" stop-opacity="0.9233"/>
<stop offset="1" stop-color="#272525" stop-opacity="0"/>
</radialGradient>
<radialGradient id="paint6_radial_254_429" cx="0" cy="0" r="1" gradientUnits="userSpaceOnUse" gradientTransform="translate(94.5377 13.8237) scale(2.8872)">
<stop stop-color="white"/>
<stop offset="0.0767177" stop-color="white" stop-opacity="0.9233"/>
<stop offset="1" stop-color="#272525" stop-opacity="0"/>
</radialGradient>
<radialGradient id="paint7_radial_254_429" cx="0" cy="0" r="1" gradientUnits="userSpaceOnUse" gradientTransform="translate(249.207 61.1538) scale(2.88721 2.8872)">
<stop stop-color="white"/>
<stop offset="0.0767177" stop-color="white" stop-opacity="0.9233"/>
<stop offset="1" stop-color="#272525" stop-opacity="0"/>
</radialGradient>
<radialGradient id="paint8_radial_254_429" cx="0" cy="0" r="1" gradientUnits="userSpaceOnUse" gradientTransform="translate(272.292 203.707) scale(2.88721 2.8872)">
<stop stop-color="white"/>
<stop offset="0.0767177" stop-color="white" stop-opacity="0.9233"/>
<stop offset="1" stop-color="#272525" stop-opacity="0"/>
</radialGradient>
<radialGradient id="paint9_radial_254_429" cx="0" cy="0" r="1" gradientUnits="userSpaceOnUse" gradientTransform="translate(318.072 121.614) scale(2.88719 2.8872)">
<stop stop-color="white"/>
<stop offset="0.0767177" stop-color="white" stop-opacity="0.9233"/>
<stop offset="1" stop-color="#272525" stop-opacity="0"/>
</radialGradient>
<radialGradient id="paint10_radial_254_429" cx="0" cy="0" r="1" gradientUnits="userSpaceOnUse" gradientTransform="translate(24.3955 82.3042) scale(2.887 2.887)">
<stop stop-color="white"/>
<stop offset="0.0767177" stop-color="white" stop-opacity="0.9233"/>
<stop offset="1" stop-color="#272525" stop-opacity="0"/>
</radialGradient>
<radialGradient id="paint11_radial_254_429" cx="0" cy="0" r="1" gradientUnits="userSpaceOnUse" gradientTransform="translate(184.343 46.3247) scale(2.8872 2.8872)">
<stop stop-color="white"/>
<stop offset="0.0767177" stop-color="white" stop-opacity="0.9233"/>
<stop offset="1" stop-color="#272525" stop-opacity="0"/>
</radialGradient>
<radialGradient id="paint12_radial_254_429" cx="0" cy="0" r="1" gradientUnits="userSpaceOnUse" gradientTransform="translate(104.475 78.1432) scale(2.8872 2.8872)">
<stop stop-color="white"/>
<stop offset="0.0767177" stop-color="white" stop-opacity="0.9233"/>
<stop offset="1" stop-color="#272525" stop-opacity="0"/>
</radialGradient>
<radialGradient id="paint13_radial_254_429" cx="0" cy="0" r="1" gradientUnits="userSpaceOnUse" gradientTransform="translate(251.288 37.1538) scale(2.88721 2.8872)">
<stop stop-color="white"/>
<stop offset="0.0767177" stop-color="white" stop-opacity="0.9233"/>
<stop offset="1" stop-color="#272525" stop-opacity="0"/>
</radialGradient>
<radialGradient id="paint14_radial_254_429" cx="0" cy="0" r="1" gradientUnits="userSpaceOnUse" gradientTransform="translate(75.2 376.891) scale(2.8872 2.88719)">
<stop stop-color="white"/>
<stop offset="0.0767177" stop-color="white" stop-opacity="0.9233"/>
<stop offset="1" stop-color="#272525" stop-opacity="0"/>
</radialGradient>
<radialGradient id="paint15_radial_254_429" cx="0" cy="0" r="1" gradientUnits="userSpaceOnUse" gradientTransform="translate(263.66 294.984) scale(2.88719)">
<stop stop-color="white"/>
<stop offset="0.0767177" stop-color="white" stop-opacity="0.9233"/>
<stop offset="1" stop-color="#272525" stop-opacity="0"/>
</radialGradient>
<radialGradient id="paint16_radial_254_429" cx="0" cy="0" r="1" gradientUnits="userSpaceOnUse" gradientTransform="translate(63.0725 195.447) scale(5.7547 5.7547)">
<stop stop-color="white"/>
<stop offset="0.0767177" stop-color="white" stop-opacity="0.9233"/>
<stop offset="1" stop-color="#272525" stop-opacity="0"/>
</radialGradient>
<radialGradient id="paint17_radial_254_429" cx="0" cy="0" r="1" gradientUnits="userSpaceOnUse" gradientTransform="translate(215.646 323.12) scale(5.7547 5.7547)">
<stop stop-color="white"/>
<stop offset="0.0767177" stop-color="white" stop-opacity="0.9233"/>
<stop offset="1" stop-color="#272525" stop-opacity="0"/>
</radialGradient>
</defs>
</svg>
